<?xml version="1.0" standalone="no"?>
<!DOCTYPE svg PUBLIC "-//W3C//DTD SVG 1.1//EN" "http://www.w3.org/Graphics/SVG/1.1/DTD/svg11.dtd" >
<svg xmlns="http://www.w3.org/2000/svg">
<metadata>Generated by IcoMoon</metadata>
<defs>
<font id="vta-icon" horiz-adv-x="1024">
<font-face units-per-em="1024" ascent="960" descent="-64" />
<missing-glyph horiz-adv-x="1024" />
<glyph unicode="&#x20;" horiz-adv-x="512" d="" />
<glyph unicode="&#xe600;" glyph-name="star" horiz-adv-x="1074" d="M196.8-35.2c6.4 38.4 12.8 78.4 20.8 120 1.6 11.2 1.6 20.8 6.4 30.4 11.2 28.8-1.6 46.4-22.4 65.6-35.2 32-68.8 67.2-104 100.8-9.6 8-16 17.6-9.6 28.8 4.8 8 16 14.4 25.6 16 54.4 9.6 108.8 16 163.2 24 12.8 1.6 20.8 6.4 27.2 19.2 22.4 49.6 48 97.6 72 147.2 4.8 11.2 9.6 22.4 24 22.4 16 0 19.2-11.2 25.6-22.4 24-49.6 49.6-97.6 73.6-147.2 4.8-9.6 9.6-14.4 20.8-16 54.4-8 110.4-16 164.8-24 11.2-1.6 24-1.6 28.8-16s-3.2-22.4-12.8-32c-40-38.4-80-78.4-120-116.8-6.4-6.4-9.6-11.2-6.4-20.8 9.6-54.4 19.2-108.8 28.8-164.8 1.6-8 1.6-14.4 1.6-22.4-1.6-16-17.6-22.4-35.2-14.4-40 20.8-78.4 41.6-118.4 62.4-12.8 6.4-25.6 12.8-38.4 20.8-8 4.8-14.4 4.8-24 0-51.2-27.2-102.4-54.4-155.2-81.6-20.8-14.4-38.4-3.2-36.8 20.8zM536 862.4c-19.2-40-36.8-75.2-54.4-110.4-25.6-51.2-51.2-102.4-75.2-153.6-4.8-8-9.6-12.8-19.2-12.8-94.4-12.8-190.4-27.2-284.8-41.6-1.6 0-1.6-1.6-4.8-3.2 52.8-51.2 104-100.8 158.4-153.6-27.2-4.8-52.8-8-76.8-11.2-3.2 0-8 3.2-11.2 6.4-51.2 49.6-102.4 99.2-153.6 148.8-11.2 11.2-17.6 25.6-11.2 41.6s17.6 24 35.2 27.2c75.2 11.2 150.4 22.4 227.2 32 27.2 3.2 54.4 8 81.6 11.2 9.6 1.6 14.4 4.8 19.2 14.4 44.8 92.8 91.2 184 136 276.8 6.4 14.4 16 25.6 33.6 25.6 19.2 1.6 30.4-6.4 41.6-25.6 44.8-91.2 89.6-182.4 134.4-273.6 4.8-9.6 9.6-14.4 22.4-16 100.8-14.4 201.6-28.8 302.4-43.2 17.6-3.2 33.6-8 38.4-27.2 6.4-17.6-1.6-32-14.4-43.2-72-70.4-145.6-140.8-217.6-211.2-9.6-8-12.8-17.6-9.6-28.8 17.6-100.8 35.2-200 52.8-300.8 3.2-17.6 0-33.6-14.4-43.2-14.4-11.2-30.4-9.6-46.4 0-60.8 32-121.6 64-182.4 97.6-6.4 3.2-12.8 11.2-14.4 19.2-4.8 20.8-8 43.2-12.8 68.8 65.6-33.6 128-67.2 195.2-102.4-4.8 27.2-8 49.6-12.8 73.6-12.8 72-25.6 145.6-36.8 217.6-1.6 6.4 1.6 16 6.4 20.8 33.6 35.2 70.4 68.8 104 102.4 32 32 64 62.4 96 94.4 3.2 3.2 4.8 4.8 8 9.6-38.4 6.4-75.2 11.2-112 17.6-60.8 8-120 17.6-180.8 27.2-4.8 1.6-11.2 6.4-14.4 12.8-41.6 81.6-81.6 163.2-121.6 244.8-3.2-3.2-6.4 3.2-11.2 11.2z" />
<glyph unicode="&#xe601;" glyph-name="360" horiz-adv-x="2134" d="M670.4 715.2c30.4 0 51.2 8 64 22.4 11.2 14.4 17.6 35.2 17.6 62.4 0 25.6-6.4 46.4-20.8 60.8-12.8 16-33.6 24-60.8 24-25.6 0-48-8-65.6-24s-25.6-36.8-25.6-60.8h-64l-1.6 1.6c-1.6 38.4 12.8 70.4 43.2 96 28.8 27.2 67.2 40 113.6 40s83.2-11.2 108.8-35.2c25.6-24 40-57.6 40-104 0-24-6.4-44.8-17.6-64-12.8-19.2-28.8-33.6-51.2-44.8 25.6-9.6 44.8-25.6 57.6-46.4s19.2-44.8 19.2-75.2c0-46.4-14.4-81.6-43.2-108.8-28.8-25.6-67.2-38.4-113.6-38.4-43.2 0-80 12.8-112 38.4s-48 57.6-46.4 99.2v1.6h64c0-24 9.6-44.8 27.2-60.8s40-25.6 67.2-25.6c27.2 0 49.6 8 65.6 25.6s24 40 24 67.2c0 32-8 54.4-22.4 70.4s-36.8 24-68.8 24h-56v52.8h57.6zM1088 937.6c19.2 0 40-1.6 59.2-6.4 19.2-3.2 35.2-9.6 48-14.4l-14.4-51.2c-12.8 6.4-27.2 9.6-41.6 14.4-14.4 3.2-32 4.8-51.2 4.8-32 0-57.6-12.8-76.8-40s-28.8-60.8-28.8-102.4v-38.4c14.4 14.4 30.4 25.6 49.6 33.6s40 12.8 62.4 12.8c43.2 0 76.8-14.4 102.4-43.2s38.4-67.2 38.4-113.6c0-51.2-14.4-92.8-41.6-123.2-28.8-30.4-65.6-46.4-113.6-46.4-46.4 0-84.8 17.6-116.8 52.8s-46.4 83.2-46.4 144v115.2c0 59.2 16 107.2 49.6 145.6 32 36.8 72 56 121.6 56zM1072 697.6c-20.8 0-40-4.8-54.4-12.8-16-9.6-27.2-20.8-35.2-36.8v-35.2c0-43.2 9.6-76.8 27.2-100.8 19.2-24 41.6-36.8 67.2-36.8 28.8 0 49.6 11.2 65.6 32 14.4 20.8 22.4 49.6 22.4 83.2 0 32-8 59.2-24 78.4s-40 28.8-68.8 28.8zM1622.4 606.4c0-56-14.4-100.8-43.2-134.4s-67.2-49.6-116.8-49.6c-48 0-88 16-116.8 49.6s-43.2 78.4-43.2 134.4v147.2c0 56 14.4 100.8 43.2 134.4s67.2 49.6 115.2 49.6c48 0 88-16 116.8-49.6s43.2-78.4 43.2-134.4v-147.2zM1553.6 768c0 35.2-8 64-24 84.8s-38.4 32-68.8 32c-28.8 0-51.2-11.2-67.2-32s-24-49.6-24-84.8v-176c0-36.8 8-64 24-86.4 16-20.8 38.4-32 67.2-32s51.2 11.2 67.2 32c16 20.8 24 49.6 24 86.4v176zM1777.6 960c-44.8 0-81.6-36.8-81.6-81.6s36.8-81.6 81.6-81.6c44.8 0 81.6 36.8 81.6 81.6 1.6 44.8-35.2 81.6-81.6 81.6zM1777.6 827.2c-27.2 0-49.6 22.4-49.6 49.6s22.4 49.6 49.6 49.6 49.6-22.4 49.6-49.6c1.6-27.2-20.8-49.6-49.6-49.6zM1116.8 187.2c-16 0-33.6 0-51.2 0-536 0-969.6 116.8-969.6 260.8 0 76.8 126.4 147.2 326.4 195.2v38.4c-257.6-60.8-422.4-156.8-422.4-265.6 0-184 476.8-334.4 1067.2-334.4 17.6 0 33.6 0 51.2 0v-145.6l193.6 188.8-195.2 188.8v-126.4zM1712 681.6v-38.4c200-48 326.4-116.8 326.4-195.2 0-110.4-259.2-206.4-622.4-243.2v-104c417.6 44.8 718.4 169.6 718.4 315.2 0 108.8-166.4 204.8-422.4 265.6z" />
<glyph unicode="&#xe602;" glyph-name="arrow-down" horiz-adv-x="632" d="M632 592l-316.8-316.8-315.2 316.8 28.8 28.8 286.4-286.4 288 288 28.8-30.4z" />
<glyph unicode="&#xe603;" glyph-name="arrow-left" horiz-adv-x="360" d="M59.2 448l299.2-299.2-30.4-30.4-328 329.6 329.6 329.6 30.4-30.4-300.8-299.2z" />
<glyph unicode="&#xe604;" glyph-name="arrow-right" horiz-adv-x="360" d="M358.4 448l-328-329.6-30.4 30.4 299.2 299.2-299.2 299.2 30.4 30.4 328-329.6z" />
<glyph unicode="&#xe605;" glyph-name="arrow-up" horiz-adv-x="632" d="M632 304l-28.8-28.8-288 286.4-286.4-286.4-28.8 28.8 315.2 315.2 316.8-315.2z" />
<glyph unicode="&#xe606;" glyph-name="award" horiz-adv-x="826" d="M539.2 296c19.2 32 48 48 84.8 49.6 36.8 0 56 19.2 56 57.6 0 36.8 16 65.6 48 84.8s40 44.8 20.8 78.4c-17.6 32-17.6 65.6 0 97.6s11.2 57.6-20.8 78.4c-32 19.2-48 48-48 84.8 0 33.6-19.2 52.8-56 52.8s-65.6 17.6-84.8 49.6c-19.2 32-44.8 38.4-76.8 20.8-33.6-17.6-65.6-17.6-97.6 0s-57.6 11.2-78.4-20.8c-19.2-32-48-48-84.8-49.6-36.8 0-56-19.2-57.6-56 0-38.4-16-65.6-48-84.8s-40-44.8-20.8-78.4c17.6-32 17.6-65.6 0-97.6s-11.2-59.2 20.8-78.4c32-19.2 48-48 48-84.8s19.2-56 57.6-57.6c36.8 0 65.6-17.6 84.8-49.6s44.8-38.4 76.8-20.8c32 17.6 65.6 17.6 97.6 0 33.6-16 59.2-9.6 78.4 24v0zM412.8 408c-128 0-230.4 118.4-198.4 252.8 73.6 17.6 134.4 76.8 150.4 150.4 134.4 30.4 252.8-70.4 252.8-198.4 0-113.6-91.2-204.8-204.8-204.8v0zM198.4 313.6c-40 0-44.8 17.6-44.8 17.6l-153.6-300.8 123.2 14.4 67.2-102.4c0 0 142.4 296 142.4 294.4-73.6 1.6-43.2 75.2-134.4 76.8v0zM668.8 320c-112-11.2-89.6-40-115.2-60.8-30.4-32-65.6-25.6-65.6-25.6l172.8-297.6 43.2 110.4 121.6-16-156.8 289.6zM456 657.6l-43.2 86.4-43.2-86.4-96-14.4 68.8-67.2-16-96 86.4 44.8 86.4-44.8-16 96 68.8 67.2-96 14.4z" />
<glyph unicode="&#xe607;" glyph-name="camera" horiz-adv-x="1419" d="M1270.4 875.2h-849.6v51.2c0 19.2-16 33.6-33.6 33.6h-129.6c-19.2 0-33.6-14.4-33.6-33.6v-51.2h-73.6c-83.2 0-150.4-67.2-150.4-150.4v-640c0-81.6 67.2-148.8 150.4-148.8h1120c83.2 0 150.4 67.2 150.4 150.4v640c-1.6 81.6-67.2 148.8-150.4 148.8v0zM710.4 9.6c-219.2 0-396.8 177.6-396.8 396.8 0 217.6 177.6 395.2 396.8 395.2 217.6 0 396.8-177.6 396.8-396.8 0-217.6-179.2-395.2-396.8-395.2v0zM710.4 694.4c-160 0-289.6-129.6-289.6-288 0-160 129.6-289.6 289.6-289.6s289.6 129.6 289.6 289.6c-1.6 158.4-131.2 288-289.6 288v0zM555.2 435.2c-4.8-16-6.4-32-6.4-48 0-19.2-16-33.6-33.6-33.6-19.2 0-33.6 14.4-33.6 33.6 0 22.4 3.2 44.8 9.6 65.6 4.8 17.6 24 28.8 41.6 24 16-4.8 27.2-24 22.4-41.6v0zM729.6 568c-51.2 0-100.8-22.4-136-60.8-6.4-8-16-11.2-25.6-11.2-8 0-16 3.2-22.4 8-14.4 12.8-16 33.6-3.2 48 46.4 54.4 115.2 84.8 185.6 84.8 19.2 0 33.6-14.4 33.6-33.6 1.6-20.8-14.4-35.2-32-35.2v0z" />
<glyph unicode="&#xe608;" glyph-name="cart" horiz-adv-x="1210" d="M291.2 867.2c11.2 0 20.8 0 28.8 0 275.2 0 548.8 0 824 0 51.2 0 65.6-14.4 65.6-64 0-112 0-224 0-336 0-48-11.2-60.8-57.6-67.2-169.6-20.8-339.2-40-507.2-59.2-78.4-9.6-155.2-17.6-235.2-27.2 9.6-33.6 12.8-65.6-9.6-97.6 12.8 0 20.8 0 30.4 0 206.4 0 412.8 0 619.2 0 8 0 17.6 0 25.6 0 24-3.2 41.6-22.4 41.6-44.8 0-24-16-41.6-41.6-46.4-8-1.6-16-1.6-25.6-1.6 57.6-33.6 78.4-70.4 64-118.4-11.2-40-51.2-68.8-92.8-67.2-40 1.6-78.4 33.6-86.4 72-9.6 46.4 12.8 84.8 67.2 112-203.2 0-403.2 0-596.8 0 14.4-14.4 35.2-30.4 49.6-51.2 16-22.4 14.4-48 4.8-73.6-14.4-38.4-52.8-62.4-92.8-59.2s-75.2 35.2-83.2 73.6c-9.6 46.4 11.2 81.6 67.2 112-8 0-12.8 1.6-17.6 1.6-40 1.6-60.8 30.4-46.4 68.8 4.8 11.2 8 24 16 33.6 20.8 28.8 20.8 57.6 14.4 91.2-43.2 174.4-80 352-118.4 529.6-3.2 17.6-9.6 20.8-25.6 20.8-40-1.6-78.4 0-118.4 0-33.6-1.6-54.4 16-54.4 43.2 0 28.8 20.8 48 54.4 48 56 0 112 0 168 0 33.6 0 46.4-9.6 56-40 4.8-17.6 8-33.6 12.8-52.8z" />
<glyph unicode="&#xe609;" glyph-name="cart-fast" horiz-adv-x="1440" d="M896 68.8c0-73.6-59.2-132.8-132.8-132.8s-132.8 59.2-132.8 132.8c0 73.6 59.2 132.8 132.8 132.8s132.8-59.2 132.8-132.8zM1228.8 68.8c0-73.6-59.2-132.8-132.8-132.8s-132.8 59.2-132.8 132.8c0 73.6 59.2 132.8 132.8 132.8s132.8-59.2 132.8-132.8zM1392 830.4h-884.8l-36.8 104c-3.2 14.4-20.8 25.6-35.2 25.6h-241.6c-27.2 0-49.6-22.4-49.6-49.6s22.4-49.6 49.6-49.6v0 0h198.4l56-147.2c0-1.6 1.6-3.2 1.6-3.2l137.6-380.8c12.8-35.2 54.4-64 91.2-64h508.8c36.8 0 78.4 28.8 91.2 64l158.4 436.8c12.8 35.2-8 64-44.8 64zM536 286.4c-3.2 6.4-11.2 12.8-17.6 12.8h-342.4c-8 0-12.8-6.4-12.8-12.8v-41.6c0-8 6.4-12.8 12.8-12.8h364.8c8 0 11.2 6.4 9.6 12.8l-14.4 41.6zM502.4 393.6c-3.2 6.4-11.2 12.8-17.6 12.8h-472c-8 0-12.8-6.4-12.8-12.8v-41.6c0-8 6.4-12.8 12.8-12.8h494.4c8 0 11.2 6.4 9.6 12.8l-14.4 41.6zM468.8 502.4c-3.2 6.4-11.2 12.8-17.6 12.8h-275.2c-8 0-12.8-6.4-12.8-12.8v-41.6c0-8 6.4-12.8 12.8-12.8h297.6c8 0 11.2 6.4 9.6 12.8l-14.4 41.6z" />
<glyph unicode="&#xe60a;" glyph-name="change" horiz-adv-x="1027" d="M694.4 912c112-46.4 220.8-92.8 331.2-139.2-4.8-4.8-6.4-8-9.6-9.6-17.6-14.4-35.2-27.2-54.4-40-9.6-6.4-11.2-12.8-4.8-24 35.2-60.8 56-126.4 64-195.2 11.2-107.2-8-209.6-62.4-304-70.4-124.8-176-208-316.8-246.4-73.6-20.8-148.8-22.4-224-8-19.2 3.2-28.8 14.4-25.6 32 3.2 20.8 8 41.6 14.4 62.4s17.6 24 38.4 20.8c124.8-19.2 236.8 12.8 331.2 97.6 73.6 65.6 115.2 150.4 126.4 249.6 8 78.4-6.4 152-41.6 222.4-4.8 9.6-9.6 9.6-17.6 3.2-19.2-14.4-38.4-30.4-59.2-44.8-11.2-8-14.4-6.4-17.6 6.4-24 102.4-46.4 203.2-70.4 305.6-1.6 1.6 0 4.8-1.6 11.2zM328-16c-6.4 1.6-9.6 3.2-14.4 4.8-99.2 43.2-201.6 84.8-302.4 128-12.8 6.4-14.4 8-1.6 17.6 17.6 14.4 36.8 27.2 54.4 41.6 8 6.4 8 11.2 3.2 19.2-56 97.6-76.8 201.6-64 313.6 16 129.6 72 236.8 169.6 323.2 73.6 65.6 160 107.2 257.6 121.6 57.6 9.6 115.2 8 172.8-1.6 19.2-3.2 27.2-12.8 25.6-32-3.2-22.4-8-44.8-14.4-67.2-4.8-17.6-17.6-22.4-35.2-17.6-192 36.8-388.8-84.8-443.2-273.6-28.8-100.8-20.8-198.4 27.2-291.2 6.4-12.8 8-14.4 19.2-4.8 19.2 14.4 40 30.4 59.2 44.8 9.6 6.4 12.8 6.4 14.4-4.8 24-100.8 48-203.2 70.4-304 1.6-6.4 1.6-9.6 1.6-17.6z" />
<glyph unicode="&#xe60b;" glyph-name="comment" horiz-adv-x="1018" d="M928 960h-838.4c-49.6 0-89.6-40-89.6-89.6v-598.4c0-49.6 40-89.6 89.6-89.6h30.4v-246.4l280 246.4h528c49.6 0 89.6 40 89.6 89.6v598.4c0 49.6-40 89.6-89.6 89.6zM958.4 272c0-16-12.8-30.4-30.4-30.4h-550.4l-198.4-174.4v174.4h-89.6c-16 0-30.4 12.8-30.4 30.4v598.4c0 16 12.8 30.4 30.4 30.4h838.4c16 0 30.4-12.8 30.4-30.4v-598.4zM179.2 780.8h659.2v-60.8h-659.2v60.8zM179.2 660.8h659.2v-59.2h-659.2v59.2zM179.2 540.8h360v-59.2h-360v59.2z" />
<glyph unicode="&#xe60c;" glyph-name="compare" horiz-adv-x="899" d="M0 772.8c1.6 6.4 3.2 12.8 4.8 20.8 16 54.4 64 91.2 121.6 92.8s107.2-35.2 124.8-89.6c17.6-54.4-3.2-112-49.6-144-6.4-4.8-8-8-8-16 0-128 0-256 0-385.6 0-43.2 28.8-72 72-72 19.2 0 36.8 0 57.6 0 0 43.2 0 84.8 0 124.8 64-64 126.4-126.4 192-192-1.6-1.6-4.8-3.2-6.4-4.8-54.4-54.4-110.4-108.8-163.2-163.2-4.8-4.8-11.2-9.6-20.8-6.4 0 36.8 0 75.2 0 113.6-17.6 0-35.2 0-51.2 0-43.2 0-84.8 9.6-123.2 32-49.6 30.4-73.6 73.6-80 129.6-6.4 14.4-6.4 28.8-6.4 44.8 0 126.4 0 252.8 0 379.2 0 6.4-1.6 11.2-8 16-30.4 20.8-48 48-54.4 84.8 0 1.6-1.6 3.2-1.6 4.8 0 8 0 19.2 0 30.4zM129.6 819.2c-35.2 0-64-28.8-64-64s27.2-64 62.4-64c35.2 0 65.6 27.2 65.6 64 0 33.6-28.8 62.4-64 64zM388.8 771.2c60.8 62.4 124.8 124.8 188.8 188.8 0-41.6 0-83.2 0-126.4 6.4 0 12.8 0 19.2 0 35.2 0 72 1.6 107.2-9.6 83.2-24 131.2-86.4 131.2-172.8 1.6-132.8 0-267.2 0-400 0-8 1.6-14.4 9.6-19.2 48-33.6 67.2-94.4 46.4-148.8s-76.8-88-132.8-83.2c-59.2 6.4-107.2 51.2-115.2 108.8-8 52.8 12.8 94.4 54.4 124.8 4.8 4.8 8 8 8 14.4 0 129.6 0 257.6 0 387.2 0 41.6-28.8 70.4-70.4 70.4-19.2 0-38.4 0-57.6 0 0-43.2 0-83.2 0-124.8-62.4 64-126.4 128-188.8 190.4zM769.6 192c-35.2 0-64-28.8-64-64s28.8-64 64-64c35.2 0 64 28.8 64 64s-27.2 64-64 64z" />
<glyph unicode="&#xe60d;" glyph-name="date" d="M939.2 864h-139.2v64c0 17.6-14.4 32-32 32s-32-14.4-32-32v-64h-192v64c0 17.6-14.4 32-32 32s-32-14.4-32-32v-64h-192v64c0 17.6-14.4 32-32 32s-32-14.4-32-32v-64h-139.2c-46.4 0-84.8-38.4-84.8-84.8v-756.8c0-48 38.4-86.4 84.8-86.4h852.8c46.4 0 84.8 38.4 84.8 84.8v758.4c1.6 46.4-36.8 84.8-83.2 84.8v0zM960 20.8c0-11.2-9.6-20.8-20.8-20.8h-854.4c-11.2 0-20.8 9.6-20.8 20.8v758.4c0 11.2 9.6 20.8 20.8 20.8h139.2v-64c0-17.6 14.4-32 32-32s32 14.4 32 32v64h192v-64c0-17.6 14.4-32 32-32s32 14.4 32 32v64h192v-64c0-17.6 14.4-32 32-32s32 14.4 32 32v64h139.2c11.2 0 20.8-9.6 20.8-20.8v-758.4zM224 576h128v-96h-128v96zM224 416h128v-96h-128v96zM224 256h128v-96h-128v96zM448 256h128v-96h-128v96zM448 416h128v-96h-128v96zM448 576h128v-96h-128v96zM672 256h128v-96h-128v96zM672 416h128v-96h-128v96zM672 576h128v-96h-128v96z" />
<glyph unicode="&#xe60e;" glyph-name="email" horiz-adv-x="1360" d="M1.6 867.2c452.8 0 904 0 1356.8 0 0-16 0-32 0-48 0-3.2-8-8-12.8-11.2-172.8-107.2-347.2-214.4-520-323.2-44.8-27.2-89.6-54.4-132.8-83.2-8-4.8-12.8-4.8-20.8 0-219.2 136-438.4 272-659.2 408-8 4.8-11.2 11.2-11.2 20.8 1.6 11.2 0 22.4 0 36.8zM680 30.4c-217.6 0-435.2 0-654.4 0-8 0-19.2-6.4-24 6.4-4.8 17.6 0 35.2 11.2 41.6 152 94.4 304 188.8 456 281.6 27.2 16 52.8 32 78.4 49.6 8 4.8 12.8 4.8 20.8 0 33.6-20.8 67.2-41.6 100.8-62.4 6.4-4.8 12.8-4.8 19.2 0 33.6 20.8 67.2 41.6 99.2 62.4 8 4.8 12.8 4.8 20.8 0 182.4-108.8 361.6-219.2 539.2-329.6 9.6-6.4 16-36.8 9.6-44.8-1.6-1.6-4.8-3.2-8-3.2-4.8 0-11.2 0-16 0-217.6-1.6-435.2-1.6-652.8-1.6zM515.2 444.8c-171.2-107.2-340.8-211.2-512-316.8 0 212.8 0 422.4 0 635.2 171.2-107.2 340.8-211.2 512-318.4zM844.8 412.8c171.2 105.6 340.8 211.2 512 316.8 0-211.2 0-422.4 0-633.6-169.6 105.6-339.2 211.2-512 316.8z" />
<glyph unicode="&#xe60f;" glyph-name="eye" d="M1011.2 484.8c-3.2 3.2-8 8-9.6 12.8-80 88-172.8 155.2-272 201.6-139.2 64-280 65.6-417.6 6.4-105.6-44.8-201.6-113.6-289.6-209.6-30.4-32-30.4-64 0-96 68.8-75.2 148.8-137.6 240-185.6 33.6-17.6 67.2-32 100.8-41.6 49.6-14.4 100.8-24 152-24 12.8 0 25.6 0 36.8 1.6 22.4 3.2 46.4 4.8 70.4 11.2 140.8 35.2 268.8 116.8 388.8 248 17.6 22.4 17.6 51.2 0 75.2v0zM974.4 440c-113.6-124.8-232-201.6-364.8-233.6-20.8-4.8-44.8-8-64-9.6-57.6-3.2-115.2 3.2-171.2 19.2-30.4 9.6-62.4 22.4-91.2 40-88 44.8-164.8 105.6-228.8 176-14.4 14.4-14.4 19.2 0 32 84.8 91.2 174.4 156.8 273.6 198.4 60.8 25.6 123.2 40 184 40 65.6 0 131.2-14.4 196.8-46.4 94.4-43.2 180.8-107.2 257.6-190.4 3.2-3.2 4.8-6.4 8-8 4.8-6.4 4.8-12.8 0-17.6v0zM508.8 619.2c-96 0-174.4-78.4-174.4-174.4s78.4-174.4 174.4-174.4c96 0 174.4 78.4 174.4 174.4s-78.4 174.4-174.4 174.4v0zM508.8 316.8c-70.4 0-128 57.6-128 128s57.6 128 128 128c70.4 0 128-57.6 128-128s-57.6-128-128-128v0z" />
<glyph unicode="&#xe610;" glyph-name="gift" horiz-adv-x="1168" d="M584 776c38.4 46.4 72 94.4 110.4 136 48 51.2 108.8 59.2 172.8 36.8 60.8-22.4 100.8-67.2 108.8-131.2 14.4-97.6-36.8-169.6-136-200 8 0 17.6 0 25.6 0 88 0 177.6 0 265.6 0 32 0 36.8-4.8 36.8-36.8 0-73.6 0-145.6 0-219.2 0-30.4-6.4-35.2-36.8-35.2-19.2 0-38.4 0-60.8 0 0-11.2 0-20.8 0-30.4 0-91.2 0-182.4 0-273.6 0-60.8-27.2-86.4-88-86.4-267.2 0-532.8 0-800 0-59.2 0-86.4 27.2-86.4 86.4 0 91.2 0 182.4 0 273.6 0 9.6 0 19.2 0 30.4-22.4 0-41.6 0-60.8 0-30.4 0-36.8 4.8-36.8 35.2 0 75.2 0 148.8 0 224 0 27.2 6.4 32 33.6 32 89.6 0 179.2 0 268.8 0 8 0 17.6 0 25.6 0-67.2 19.2-113.6 59.2-132.8 126.4-20.8 68.8 8 144 68.8 185.6 56 40 144 40 195.2-4.8 32-28.8 56-65.6 83.2-97.6 16-16 28.8-32 43.2-51.2zM464 617.6c-1.6-4.8-1.6-6.4-1.6-9.6 0-176 0-350.4 0-526.4 0-33.6 16-48 49.6-49.6 43.2 0 88 0 131.2 0 51.2 0 62.4 12.8 62.4 64 0 163.2 0 328 0 491.2 0 9.6 0 19.2 0 28.8-81.6 1.6-161.6 1.6-241.6 1.6zM507.2 715.2c-33.6 43.2-62.4 81.6-92.8 120-20.8 27.2-54.4 33.6-84.8 20.8-28.8-12.8-46.4-46.4-43.2-75.2 4.8-35.2 30.4-62.4 64-64 49.6-3.2 100.8-1.6 156.8-1.6zM662.4 715.2c56 0 107.2-1.6 156.8 1.6 33.6 1.6 57.6 30.4 64 64 4.8 30.4-14.4 62.4-43.2 75.2-30.4 14.4-64 6.4-84.8-20.8-30.4-38.4-60.8-76.8-92.8-120z" />
<glyph unicode="&#xe611;" glyph-name="hamburge" horiz-adv-x="894" d="M851.2 492.8h-806.4c-24 0-44.8-19.2-44.8-44.8 0-24 20.8-44.8 44.8-44.8h806.4c24 0 44.8 20.8 44.8 44.8-1.6 25.6-20.8 44.8-44.8 44.8v0zM44.8 672h806.4c24 0 44.8 20.8 44.8 44.8s-20.8 44.8-44.8 44.8h-806.4c-24 0-44.8-20.8-44.8-44.8 0-25.6 20.8-44.8 44.8-44.8v0zM851.2 224h-806.4c-24 0-44.8-19.2-44.8-44.8s20.8-44.8 44.8-44.8h806.4c24 0 44.8 20.8 44.8 44.8-1.6 25.6-20.8 44.8-44.8 44.8v0z" />
<glyph unicode="&#xe612;" glyph-name="headphone" horiz-adv-x="1160" d="M1091.2 408c-12.8 307.2-236.8 552-510.4 552s-497.6-244.8-512-552c-40-14.4-68.8-51.2-68.8-96v-273.6c0-56 46.4-102.4 102.4-102.4h102.4v68.8h68.8v340.8h-68.8v68.8h-67.2c16 265.6 208 478.4 441.6 478.4s427.2-211.2 441.6-478.4h-67.2v-68.8h-68.8v-340.8h68.8v-68.8h102.4c56 0 102.4 46.4 102.4 102.4v273.6c1.6 44.8-27.2 81.6-67.2 96zM136 4.8h-33.6c-19.2 0-33.6 16-33.6 33.6v273.6c0 19.2 14.4 33.6 33.6 33.6h35.2v-340.8zM1092.8 38.4c0-19.2-14.4-33.6-33.6-33.6h-35.2v340.8h35.2c19.2 0 33.6-16 33.6-33.6v-273.6z" />
<glyph unicode="&#xe613;" glyph-name="heart" horiz-adv-x="1195" d="M595.2 820.8c48 33.6 94.4 70.4 144 100.8 124.8 73.6 324.8 40 403.2-84.8 68.8-112 70.4-228.8 9.6-345.6-38.4-73.6-96-129.6-153.6-185.6-120-115.2-240-232-361.6-347.2-30.4-28.8-49.6-28.8-80 0-137.6 132.8-275.2 264-411.2 396.8-70.4 68.8-126.4 147.2-140.8 244.8-27.2 177.6 62.4 334.4 259.2 356.8 83.2 9.6 158.4-9.6 225.6-56 36.8-25.6 72-54.4 105.6-80z" />
<glyph unicode="&#xe614;" glyph-name="house" horiz-adv-x="1022" d="M849.6-1.6h-184v369.6h-308.8v-369.6h-184v553.6h-62.4v-616h801.6v616h-62.4v-553.6zM419.2-1.6v307.2h185.6v-308.8h-185.6zM1022.4 584l-36.8-49.6-475.2 348.8-473.6-348.8-36.8 49.6 510.4 376 512-376z" />
<glyph unicode="&#xe615;" glyph-name="info" horiz-adv-x="744" d="M539.2 803.2c38.4 0 73.6 0 110.4 0 59.2 0 92.8-33.6 92.8-91.2 0-228.8 0-457.6 0-686.4 0-54.4-36.8-88-92.8-89.6-91.2 0-182.4 0-273.6 0-92.8 0-185.6 0-276.8 0-64 0-99.2 33.6-99.2 97.6 0 225.6 0 451.2 0 678.4 0 52.8 36.8 89.6 89.6 91.2 38.4 0 76.8 0 116.8 0 6.4 35.2 30.4 44.8 64 40-1.6 40 9.6 75.2 43.2 96 19.2 12.8 44.8 20.8 67.2 20.8 56-1.6 92.8-48 96-115.2 30.4 1.6 56-3.2 62.4-41.6zM208 718.4c-24 0-46.4 0-67.2 0-38.4 0-54.4-17.6-54.4-56 0-68.8 0-137.6 0-206.4 0-126.4 0-252.8 0-380.8 0-38.4 16-54.4 54.4-54.4 156.8 0 312 0 468.8 0 35.2 0 52.8 17.6 52.8 52.8 0 164.8 0 329.6 0 494.4 0 33.6 0 68.8 0 102.4 0 25.6-16 44.8-36.8 46.4-27.2 1.6-56 0-84.8 0 0-14.4 0-28.8 0-41.6-1.6-22.4-17.6-38.4-38.4-38.4-83.2 0-168 0-251.2 0-24 0-40 17.6-40 41.6-3.2 12.8-3.2 25.6-3.2 40zM396.8 843.2c16 0 17.6 8 16 19.2-3.2 19.2-14.4 32-33.6 35.2s-33.6-4.8-43.2-22.4c-11.2-20.8-4.8-32 19.2-32 4.8 0 33.6 1.6 41.6 0zM372.8 328c-59.2 0-118.4 0-177.6 0-28.8 0-46.4 16-48 40 0 25.6 19.2 43.2 46.4 43.2 118.4 0 236.8 0 355.2 0 30.4 0 49.6-16 49.6-40 0-27.2-17.6-43.2-49.6-43.2-57.6 0-116.8 0-176 0v0zM376 275.2c57.6 0 116.8 0 174.4 0 17.6 0 33.6-4.8 43.2-19.2 17.6-27.2-1.6-60.8-35.2-62.4-24-1.6-49.6 0-73.6 0-92.8 0-187.2 0-280 0-6.4 0-12.8 0-20.8 0-22.4 3.2-36.8 19.2-38.4 40 0 20.8 14.4 38.4 36.8 40 14.4 1.6 28.8 1.6 44.8 1.6 49.6 0 99.2 0 148.8 0zM372.8 465.6c-59.2 0-118.4 0-177.6 0-30.4 0-49.6 16-49.6 41.6 0 24 19.2 40 48 40 118.4 0 236.8 0 355.2 0 28.8 0 44.8-12.8 48-35.2 3.2-27.2-14.4-46.4-44.8-46.4-57.6 0-118.4 0-179.2 0v0z" />
<glyph unicode="&#xe616;" glyph-name="info-picture" horiz-adv-x="1990" d="M1984 953.6c0 0 0 0 0 0v0c0 1.6 0 1.6 0 0-4.8 4.8-9.6 6.4-14.4 6.4-1.6 0-1.6 0-3.2 0h-1004.8c-11.2 0-19.2-8-19.2-19.2v-691.2c0-11.2 8-19.2 19.2-19.2h1008c11.2 0 19.2 8 19.2 19.2v688c3.2 6.4 0 11.2-4.8 16zM1952 267.2h-971.2v660.8h971.2v-660.8zM1390.4 732.8c-11.2 0-19.2-8-20.8-19.2 0 0 0 0 0 0v-230.4c-1.6-8 1.6-14.4 8-19.2 0 0 0 0 0 0s0 0 1.6 0c0 0 1.6 0 1.6 0 6.4-3.2 14.4-1.6 20.8 3.2l192 115.2c9.6 4.8 12.8 17.6 6.4 27.2-1.6 3.2-3.2 4.8-6.4 6.4l-193.6 116.8c-3.2 0-6.4 0-9.6 0v0zM1080 734.4h-721.6v43.2c0 16-12.8 28.8-28.8 28.8h-110.4c-16 0-28.8-12.8-28.8-28.8v-43.2h-62.4c-70.4 0-128-57.6-128-128v-544c0-70.4 57.6-128 128-128h953.6c70.4 0 128 57.6 128 128v545.6c-1.6 70.4-59.2 126.4-129.6 126.4v0zM604.8-1.6c-185.6 0-337.6 152-337.6 337.6s152 337.6 337.6 337.6c185.6 0 337.6-152 337.6-337.6 0-187.2-152-337.6-337.6-337.6v0zM604.8 580.8c-136 0-246.4-110.4-246.4-246.4s110.4-246.4 246.4-246.4c136 0 246.4 110.4 246.4 246.4-1.6 136-112 246.4-246.4 246.4v0zM472 361.6c-3.2-12.8-4.8-27.2-4.8-41.6 0-16-12.8-28.8-28.8-28.8s-28.8 12.8-28.8 28.8c0 19.2 3.2 38.4 8 56 4.8 16 19.2 24 35.2 20.8 14.4-4.8 24-20.8 19.2-35.2v0zM620.8 473.6c-44.8 0-86.4-19.2-115.2-52.8-6.4-6.4-12.8-9.6-22.4-9.6-6.4 0-12.8 1.6-19.2 6.4-11.2 11.2-12.8 28.8-3.2 40 40 46.4 97.6 72 158.4 72 16 0 28.8-12.8 28.8-28.8 0-14.4-12.8-27.2-27.2-27.2v0z" />
<glyph unicode="&#xe617;" glyph-name="laptop" horiz-adv-x="1560" d="M1489.6 131.2h-104c1.6 6.4 3.2 14.4 3.2 22.4v736c0 40-32 70.4-70.4 70.4h-1076.8c-40 0-70.4-32-70.4-70.4v-736c0-8 1.6-16 4.8-22.4h-105.6c-40 0-70.4-32-70.4-70.4v-52.8c0-40 32-72 70.4-72h1417.6c38.4 0 70.4 32 70.4 70.4v52.8c1.6 40-30.4 72-68.8 72zM219.2 153.6v736c0 12.8 9.6 22.4 22.4 22.4h1076.8c12.8 0 22.4-9.6 22.4-22.4v-736c0-12.8-9.6-22.4-22.4-22.4h-1076.8c-12.8 0-22.4 9.6-22.4 22.4zM1512 6.4c0-12.8-9.6-22.4-22.4-22.4h-1419.2c-11.2 0-22.4 11.2-22.4 22.4v52.8c0 12.8 9.6 22.4 22.4 22.4h1419.2c12.8 0 22.4-9.6 22.4-22.4v-52.8zM852.8 838.4c0-12.8-11.2-24-24-24h-97.6c-12.8 0-24 11.2-24 24s11.2 24 24 24h97.6c14.4 0 24-11.2 24-24z" />
<glyph unicode="&#xe618;" glyph-name="location" horiz-adv-x="650" d="M324.8-64c-1.6 1.6-3.2 3.2-4.8 4.8-75.2 128-150.4 257.6-222.4 387.2-38.4 68.8-70.4 140.8-88 217.6-27.2 118.4-4.8 227.2 80 315.2 72 75.2 160 107.2 264 97.6 150.4-14.4 264-120 291.2-267.2 12.8-67.2 0-132.8-20.8-198.4-30.4-92.8-76.8-177.6-124.8-262.4-56-97.6-113.6-193.6-171.2-289.6 0 0-1.6-1.6-3.2-4.8zM440 643.2c0 64-52.8 115.2-116.8 115.2s-115.2-52.8-115.2-115.2c0-62.4 52.8-115.2 115.2-115.2 65.6 0 118.4 51.2 116.8 115.2z" />
<glyph unicode="&#xe619;" glyph-name="maydoitra" horiz-adv-x="1397" d="M207.3 324v323.2h70.4l83.2-228.8c8-20.8 12.8-36.8 16-48 3.2 11.2 9.6 28.8 19.2 51.2l83.2 225.6h62.4v-323.2h-44.8v270.4l-100.8-270.4h-41.6l-100.8 275.2v-275.2h-46.4zM576.9 324l134.4 323.2h49.6l142.4-323.2h-52.8l-40 97.6h-145.6l-38.4-97.6h-49.6zM677.7 456.8h118.4l-36.8 89.6c-11.2 27.2-19.2 49.6-24 67.2-4.8-20.8-11.2-41.6-19.2-62.4l-38.4-94.4zM706.5 668l32 62.4h56l-52.8-62.4h-35.2zM1039.3 324v137.6l-134.4 187.2h56l68.8-97.6c12.8-17.6 24-36.8 35.2-54.4 11.2 17.6 24 35.2 38.4 57.6l67.2 94.4h54.4l-139.2-187.2v-137.6h-46.4zM476.1 16.8c-1.6 0-3.2 0-6.4 0-276.8 67.2-464 251.2-464 459.2 0 267.2 310.4 484.8 692.8 484.8s692.8-217.6 692.8-484.8c0-203.2-174.4-380.8-443.2-452.8-12.8-3.2-25.6 3.2-28.8 14.4s3.2 24 16 27.2c244.8 65.6 409.6 232 409.6 411.2 0 243.2-289.6 441.6-646.4 441.6s-646.4-198.4-646.4-441.6c0-187.2 172.8-353.6 430.4-416 12.8-3.2 19.2-14.4 16-27.2-1.6-9.6-11.2-16-22.4-16zM303.3 231.2c-6.4-6.4-6.4-16 0-20.8l168-171.2-235.2-72c-8-3.2-12.8-11.2-9.6-19.2s11.2-12.8 20.8-9.6l259.2 80c4.8 1.6 9.6 6.4 11.2 11.2s0 11.2-3.2 14.4l-188.8 187.2c-1.6 1.6-4.8 3.2-8 4.8-4.8 0-9.6-1.6-14.4-4.8z" />
<glyph unicode="&#xe61a;" glyph-name="minus" horiz-adv-x="965" d="M579.2 552h385.6v-171.2h-964.8v171.2h579.2z" />
<glyph unicode="&#xe61b;" glyph-name="new" horiz-adv-x="1267" d="M622.4 472h-118.4v-294.4h-48v294.4h-116.8v35.2h283.2v-35.2zM728 179.2h-48v328h48v-328zM1086.4 179.2h-48l-172.8 251.2h-1.6v-251.2h-48v328h48l172.8-251.2h1.6v251.2h48v-328zM312-60.8c-11.2 0-19.2 8-20.8 19.2 0 11.2 8 20.8 19.2 22.4l908.8 67.2 3.2 652.8-988.8-9.6v-662.4c0-1.6 1.6-30.4-19.2-51.2-14.4-14.4-33.6-22.4-59.2-22.4-52.8 0-73.6 41.6-75.2 68.8l-75.2 819.2c-1.6 11.2 6.4 20.8 17.6 22.4l1008 89.6c9.6 1.6 19.2-6.4 22.4-16l17.6-97.6c1.6-11.2-4.8-22.4-16-24s-22.4 4.8-24 16l-14.4 80-969.6-86.4 72-800c0-8 4.8-30.4 33.6-30.4 12.8 0 24 3.2 28.8 9.6 8 9.6 8 22.4 8 22.4v683.2c0 11.2 9.6 20.8 20.8 20.8l1030.4 9.6c4.8 0 11.2-1.6 14.4-6.4 3.2-3.2 6.4-9.6 6.4-14.4l-3.2-692.8c0-11.2-8-19.2-19.2-20.8l-926.4-68.8c1.6 0 1.6 0 0 0zM312-64c-12.8 0-24 9.6-24 22.4 0 14.4 9.6 25.6 22.4 25.6l904 67.2 3.2 644.8-982.4-9.6v-657.6c0 0 1.6-30.4-20.8-54.4-14.4-16-35.2-24-62.4-24-56 0-76.8 43.2-78.4 72l-73.6 820.8c-1.6 12.8 9.6 25.6 22.4 27.2l1008 89.6c11.2 1.6 24-8 25.6-19.2l17.6-97.6c1.6-6.4 0-12.8-3.2-17.6s-9.6-9.6-16-9.6c-6.4-1.6-12.8 0-17.6 3.2s-9.6 9.6-9.6 16l-14.4 75.2-961.6-86.4 72-796.8c0-8 4.8-27.2 30.4-27.2 12.8 0 20.8 3.2 27.2 8 8 8 8 19.2 8 19.2v684.8c0 12.8 11.2 24 24 24l1030.4 9.6c6.4 0 12.8-3.2 17.6-6.4 4.8-4.8 6.4-11.2 6.4-17.6l-3.2-692.8c0-12.8-9.6-24-22.4-24l-926.4-68.8c-1.6 0-1.6 0-3.2 0zM1225.6 705.6l-3.2-660.8-910.4-67.2c-9.6 0-16-8-14.4-17.6 0-8 8-14.4 17.6-16 0 0 0 0 0 0l926.4 68.8c8 0 14.4 8 16 16l3.2 692.8c0 4.8-1.6 8-4.8 11.2s-8 4.8-11.2 4.8l-1030.4-9.6c-9.6 0-16-8-16-16v-683.2c0-1.6 0-16-9.6-25.6-6.4-6.4-17.6-11.2-32-11.2-33.6 0-36.8 25.6-38.4 33.6l-76.8 804.8h3.2l972.8 86.4 16-83.2c0-4.8 3.2-8 6.4-11.2s8-3.2 12.8-3.2c4.8 1.6 8 3.2 11.2 6.4s3.2 8 3.2 12.8l-17.6 97.6c-1.6 8-9.6 14.4-17.6 12.8l-1008-89.6c-9.6-1.6-16-9.6-14.4-17.6l73.6-820.8c1.6-25.6 20.8-65.6 70.4-65.6 24 0 43.2 6.4 56 20.8 19.2 20.8 17.6 48 17.6 48v667.2l998.4 14.4z" />
<glyph unicode="&#xe61c;" glyph-name="news-widget" horiz-adv-x="1336" d="M0 960c409.6 0 816 0 1225.6 0 0-40 0-76.8 0-118.4 36.8 0 70.4 0 108.8 0-8-57.6-14.4-110.4-22.4-163.2-24-179.2-49.6-358.4-73.6-536-8-62.4-17.6-123.2-25.6-185.6-1.6-19.2-12.8-20.8-28.8-20.8-51.2 0-100.8 0-152 0-331.2 0-662.4 0-993.6 0-12.8 0-25.6 0-40 0 1.6 342.4 1.6 681.6 1.6 1024zM153.6 684.8c297.6 0 590.4 0 883.2 0 0 44.8 0 86.4 0 126.4-296 0-590.4 0-883.2 0 0-43.2 0-84.8 0-126.4zM523.2 372.8c-123.2 0-246.4 0-369.6 0 0-100.8 0-198.4 0-299.2 123.2 0 246.4 0 369.6 0 0 100.8 0 200 0 299.2zM924.8 620.8c-257.6 0-513.6 0-769.6 0 0-46.4 0-88 0-132.8 257.6 0 513.6 0 769.6 0 0 44.8 0 88 0 132.8zM1032 372.8c-134.4 0-265.6 0-395.2 0 0-25.6 0-48 0-68.8 132.8 0 264 0 395.2 0 0 24 0 44.8 0 68.8zM636.8 67.2c132.8 0 262.4 0 395.2 0 0 22.4 0 43.2 0 64-132.8 0-262.4 0-395.2 0 0-20.8 0-40 0-64zM636.8 246.4c0-20.8 0-38.4 0-57.6 132.8 0 264 0 395.2 0 0 20.8 0 38.4 0 57.6-131.2 0-262.4 0-395.2 0z" />
<glyph unicode="&#xe61d;" glyph-name="pay" horiz-adv-x="1018" d="M356.8 608c97.6 116.8 196.8 233.6 294.4 352 83.2-68.8 164.8-137.6 248-206.4-131.2-156.8-264-313.6-395.2-472-70.4 59.2-139.2 116.8-209.6 176 0 0 0 1.6 0 1.6 4.8-1.6 9.6-3.2 14.4-4.8 30.4-9.6 60.8-19.2 91.2-28.8 48-16 97.6 22.4 92.8 75.2-3.2 24-14.4 41.6-35.2 52.8-30.4 17.6-60.8 35.2-92.8 51.2-3.2 1.6-4.8 1.6-8 3.2zM571.2 724.8c-59.2 0-105.6-49.6-97.6-107.2 8-62.4 64-105.6 124.8-99.2 44.8 4.8 81.6 44.8 83.2 91.2 3.2 60.8-48 115.2-110.4 115.2zM990.4 27.2c-17.6-1.6-33.6-3.2-49.6-4.8-36.8-3.2-72-6.4-108.8-9.6-24-1.6-46.4-4.8-70.4-6.4-1.6 0-4.8 1.6-6.4 3.2-17.6 28.8-44.8 36.8-76.8 36.8-54.4 0-107.2 0-161.6 0-36.8 0-68.8 9.6-97.6 28.8-24 14.4-43.2 33.6-64 51.2-28.8 25.6-56 49.6-84.8 75.2-17.6 16-22.4 41.6-8 60.8s40 22.4 60.8 8c40-28.8 81.6-56 121.6-83.2 22.4-14.4 46.4-22.4 73.6-22.4 52.8 0 104 0 156.8 0 9.6 0 14.4 4.8 16 11.2 1.6 4.8-3.2 12.8-8 14.4-3.2 1.6-6.4 1.6-9.6 1.6-28.8 0-57.6 0-86.4 0-3.2 0-6.4 0-9.6 0-22.4 0-40 19.2-40 41.6s17.6 38.4 40 40c67.2 0 134.4 0 203.2 0 30.4 0 60.8-4.8 88-20.8 20.8-12.8 36.8-32 49.6-52.8 20.8-35.2 36.8-73.6 51.2-112 6.4-20.8 12.8-40 20.8-60.8zM454.4 768c-11.2-12.8-20.8-24-28.8-35.2-22.4-25.6-44.8-52.8-65.6-78.4-3.2-3.2-6.4-4.8-9.6-4.8-9.6 0-17.6 0-27.2 0-12.8 0-22.4-8-25.6-17.6-3.2-11.2 1.6-22.4 12.8-28.8 44.8-25.6 88-49.6 132.8-75.2 28.8-16 28.8-56 1.6-72-9.6-6.4-20.8-8-32-4.8-51.2 16-102.4 33.6-155.2 49.6-19.2 6.4-33.6 19.2-48 33.6-4.8 4.8-9.6 11.2-14.4 14.4-8 8-17.6 9.6-27.2 6.4-22.4-6.4-43.2-11.2-65.6-17.6-1.6 0-4.8-1.6-6.4-1.6 0 3.2 0 4.8 0 6.4 0 64 0 126.4 0 190.4 0 6.4 1.6 9.6 8 8 11.2-1.6 22.4 1.6 33.6 4.8 40 11.2 81.6 24 121.6 35.2 24 6.4 49.6 9.6 75.2 4.8 38.4-3.2 78.4-9.6 120-17.6zM0 768c20.8 0 41.6 0 64 0 0-3.2 0-4.8 0-8 0-86.4 0-172.8 0-259.2 0-6.4-1.6-8-8-8s-14.4 0-20.8 0c-6.4 0-9.6 1.6-9.6 8-1.6 22.4-3.2 43.2-6.4 65.6-3.2 41.6-8 81.6-11.2 123.2-1.6 24-4.8 48-6.4 73.6-1.6 1.6-1.6 3.2-1.6 4.8zM1017.6-1.6c0-20.8 0-41.6 0-62.4-91.2 0-182.4 0-275.2 0 0 12.8 0 24 0 36.8 92.8 9.6 184 17.6 275.2 25.6zM646.4 577.6c-6.4-6.4-11.2-12.8-16-19.2-3.2 3.2-6.4 4.8-9.6 8s-4.8 3.2-8 0c-8-6.4-16-11.2-24-16-6.4 9.6-12.8 17.6-17.6 25.6 6.4 3.2 11.2 4.8 16 9.6 6.4 4.8 11.2 9.6 16 16 1.6 1.6 1.6 8 0 9.6s-6.4 1.6-9.6 1.6c-4.8-1.6-9.6-4.8-16-8-8-3.2-17.6-8-27.2-8-20.8-1.6-36.8 17.6-33.6 40 0 1.6 0 1.6 0 3.2 6.4 9.6 1.6 16-8 22.4 0 0-1.6 1.6-1.6 1.6 0 1.6 1.6 1.6 1.6 3.2 4.8 4.8 9.6 11.2 14.4 16 4.8-3.2 8-6.4 12.8-9.6 8 4.8 16 11.2 24 16 6.4-8 11.2-16 17.6-24-8-6.4-14.4-11.2-22.4-16-3.2-1.6-4.8-6.4-6.4-9.6-1.6-4.8 1.6-9.6 6.4-8 6.4 1.6 12.8 4.8 17.6 8s11.2 4.8 16 8c14.4 4.8 25.6 1.6 36.8-8 11.2-11.2 12.8-24 8-36.8-3.2-8-1.6-14.4 6.4-19.2 1.6-3.2 3.2-4.8 6.4-6.4z" />
<glyph unicode="&#xe61e;" glyph-name="phone" horiz-adv-x="662" d="M572.8 960h-483.2c-49.6 0-89.6-40-89.6-89.6v-843.2c0-51.2 40-91.2 89.6-91.2h481.6c49.6 0 89.6 40 89.6 89.6v844.8c1.6 49.6-38.4 89.6-88 89.6zM89.6 899.2h481.6c16 0 30.4-12.8 30.4-30.4v-89.6h-540.8v91.2c0 16 12.8 28.8 28.8 28.8zM601.6 718.4v-481.6h-540.8v481.6h540.8zM572.8-3.2h-483.2c-16 0-30.4 12.8-30.4 30.4v150.4h542.4v-150.4c0-17.6-12.8-30.4-28.8-30.4zM361.6 86.4c0-16-12.8-30.4-30.4-30.4s-30.4 12.8-30.4 30.4 12.8 30.4 30.4 30.4 30.4-12.8 30.4-30.4z" />
<glyph unicode="&#xe61f;" glyph-name="pigmoney" horiz-adv-x="1085" d="M702.4-64c-35.2 0-51.2 30.4-78.4 84.8h-203.2l-1.6-4.8c-4.8-11.2-9.6-22.4-14.4-35.2-14.4-30.4-32-44.8-60.8-44.8-20.8 0-48 8-89.6 24-28.8 11.2-48 27.2-56 46.4-6.4 16-4.8 33.6 3.2 52.8 17.6 36.8 11.2 57.6-20.8 88-76.8 68.8-108.8 160-92.8 265.6 4.8 27.2 1.6 38.4-24 51.2-33.6 19.2-57.6 51.2-64 88-6.4 35.2 3.2 70.4 27.2 96 8 8 17.6 20.8 32 24 1.6 0 4.8 0 6.4 0 6.4 0 14.4-1.6 20.8-4.8 3.2-1.6 6.4-1.6 9.6-3.2l9.6-1.6-3.2-8c-1.6-3.2-1.6-6.4-1.6-9.6-1.6-8-3.2-17.6-9.6-22.4-22.4-22.4-33.6-44.8-28.8-64 3.2-14.4 20.8-32 49.6-46.4 27.2 62.4 70.4 113.6 128 150.4 83.2 52.8 176 80 276.8 80 35.2 0 72-3.2 108.8-9.6 4.8 0 8-1.6 11.2-1.6 9.6 0 16 3.2 24 16 33.6 51.2 80 86.4 142.4 104 6.4 1.6 16 3.2 24 3.2 6.4 0 16 0 19.2-8 8-14.4 4.8-33.6 3.2-44.8-3.2-14.4-8-28.8-11.2-44.8-4.8-19.2-11.2-40-14.4-60.8-1.6-8 4.8-24 12.8-28.8 88-57.6 105.6-80 140.8-182.4h1.6c92.8-4.8 105.6-19.2 105.6-112v-35.2c0-81.6-11.2-94.4-92.8-104-9.6-1.6-20.8-8-24-14.4-33.6-60.8-75.2-104-126.4-132.8 22.4-84.8 12.8-104-56-131.2-40-11.2-64-19.2-83.2-19.2zM627.2 81.6c38.4 0 46.4-14.4 62.4-57.6 9.6-24 17.6-27.2 24-27.2 4.8 0 11.2 1.6 19.2 6.4s16 6.4 24 9.6c17.6 3.2 28.8 9.6 32 17.6s1.6 19.2-4.8 33.6c-14.4 30.4-6.4 57.6 25.6 76.8 43.2 25.6 78.4 64 108.8 116.8 9.6 16 30.4 32 49.6 35.2l4.8 1.6c51.2 9.6 51.2 9.6 51.2 64v8c0 6.4 0 12.8 0 19.2 1.6 16 0 27.2-4.8 33.6-4.8 4.8-11.2 8-22.4 8-3.2 0-6.4 0-9.6 0s-6.4 0-9.6 0c-32 0-52.8 17.6-59.2 48-14.4 72-56 123.2-126.4 155.2-14.4 6.4-28.8 28.8-27.2 44.8 1.6 25.6 4.8 51.2 9.6 78.4 1.6 6.4 1.6 12.8 3.2 20.8-33.6-14.4-59.2-40-76.8-75.2-11.2-22.4-27.2-27.2-44.8-27.2-3.2 0-8 0-11.2 0l-36.8-1.6c-33.6 1.6-70.4 4.8-104 4.8-30.4 0-56-1.6-80-4.8-126.4-19.2-209.6-76.8-251.2-171.2-57.6-131.2-32-241.6 72-328 33.6-27.2 41.6-57.6 24-97.6l-3.2-6.4c-3.2-8-8-16-9.6-24-1.6-4.8 0-14.4 1.6-16l11.2-4.8c24-9.6 48-20.8 72-22.4 1.6 1.6 11.2 14.4 22.4 46.4 11.2 28.8 30.4 41.6 59.2 41.6 4.8 0 11.2 0 16-1.6 36.8-4.8 73.6-6.4 110.4-6.4 16 0 30.4 0 46.4 1.6 12.8 0 24 0 32 0zM232 702.4c-35.2 56-28.8 128 14.4 185.6 33.6 44.8 88 70.4 144 70.4 16 0 32-1.6 48-6.4 78.4-22.4 123.2-81.6 131.2-169.6l1.6-9.6h-54.4l-1.6 6.4c-22.4 76.8-65.6 120-123.2 120-11.2 0-22.4-1.6-33.6-4.8-70.4-17.6-100.8-81.6-81.6-169.6l1.6-6.4-43.2-24-3.2 8zM851.2 427.2c0-24-19.2-41.6-43.2-41.6s-43.2 19.2-43.2 41.6c0 24 19.2 43.2 43.2 43.2 25.6 0 43.2-19.2 43.2-43.2z" />
<glyph unicode="&#xe620;" glyph-name="playvideo" horiz-adv-x="1466" d="M732.8 960c169.6 0 337.6 1.6 507.2 0 94.4-1.6 168-43.2 208-131.2 11.2-25.6 16-56 16-83.2 1.6-198.4 1.6-396.8 0-593.6 0-107.2-81.6-198.4-188.8-211.2-19.2-1.6-36.8-3.2-56-3.2-331.2 0-662.4 0-992 0-94.4 0-180.8 54.4-212.8 137.6-8 24-12.8 49.6-12.8 73.6-1.6 196.8 1.6 395.2-1.6 593.6-1.6 112 83.2 196.8 185.6 212.8 16 3.2 32 3.2 48 3.2 166.4 1.6 332.8 1.6 499.2 1.6zM734.4 849.6c-17.6 0-36.8 0-54.4 0-148.8 0-297.6 0-446.4 0-59.2 0-113.6-41.6-112-112 1.6-195.2 1.6-392 0-587.2 0-36.8 14.4-68.8 46.4-84.8 20.8-11.2 44.8-17.6 68.8-17.6 331.2-1.6 662.4 0 992 0 3.2 0 8 0 12.8 0 59.2 3.2 102.4 46.4 102.4 100.8 0 200 0 401.6 0 601.6 0 25.6-9.6 48-27.2 67.2-24 24-52.8 33.6-86.4 33.6-164.8-1.6-331.2-1.6-496-1.6zM572.8 172.8c0 177.6 0 350.4 0 529.6 145.6-88 289.6-176 436.8-264-147.2-89.6-289.6-177.6-436.8-265.6z" />
<glyph unicode="&#xe621;" glyph-name="plus" horiz-adv-x="965" d="M579.2 552h385.6v-171.2h-385.6v-444.8h-190.4v443.2h-388.8v172.8h388.8v408h190.4v-408z" />
<glyph unicode="&#xe622;" glyph-name="product-new" horiz-adv-x="1026" d="M0 444.8c1.6 289.6 241.6 523.2 531.2 515.2 272-8 497.6-238.4 494.4-510.4 0-22.4-11.2-49.6-27.2-65.6-137.6-142.4-278.4-281.6-419.2-420.8-16-14.4-41.6-27.2-62.4-27.2-249.6-6.4-476.8 188.8-507.2 438.4-3.2 24-6.4 48-9.6 70.4zM920 459.2c11.2 185.6-161.6 400-409.6 398.4-198.4 0-428.8-171.2-404.8-457.6 16-196.8 227.2-385.6 400-356.8 41.6 235.2 179.2 372.8 414.4 416zM440 336c1.6-1.6 3.2-3.2 3.2-4.8s1.6-3.2 0-4.8c0-1.6 0-3.2-1.6-4.8s-1.6-3.2-3.2-4.8l-12.8-12.8c-3.2-1.6-4.8-3.2-8-4.8s-4.8-1.6-8-1.6c-3.2 0-6.4 0-9.6 1.6s-8 3.2-12.8 4.8l-96 35.2c-6.4 1.6-11.2 4.8-17.6 8s-12.8 4.8-17.6 8v0c4.8-4.8 9.6-9.6 14.4-16 4.8-4.8 9.6-11.2 14.4-16l67.2-75.2c0 0 1.6-1.6 1.6-3.2s0-1.6 0-3.2-1.6-3.2-3.2-4.8c-1.6-1.6-3.2-3.2-6.4-6.4-3.2-1.6-4.8-4.8-6.4-4.8-1.6-1.6-3.2-1.6-4.8-3.2-1.6 0-3.2 0-3.2 0-1.6 0-1.6 0-1.6 1.6l-115.2 129.6c-3.2 3.2-4.8 6.4-3.2 11.2 0 3.2 1.6 6.4 4.8 9.6l16 14.4c3.2 3.2 4.8 4.8 8 6.4 1.6 1.6 4.8 1.6 8 1.6s4.8 0 8 0c3.2 0 6.4-1.6 11.2-3.2l75.2-28.8c4.8-1.6 9.6-3.2 12.8-4.8 4.8-1.6 8-3.2 12.8-4.8s8-3.2 12.8-4.8c3.2-1.6 8-3.2 12.8-4.8v0c-4.8 4.8-9.6 9.6-14.4 16s-9.6 11.2-14.4 16l-60.8 67.2c0 0-1.6 1.6-1.6 3.2s0 1.6 1.6 3.2c0 1.6 1.6 3.2 3.2 4.8s3.2 3.2 6.4 6.4c3.2 1.6 4.8 4.8 6.4 4.8 1.6 1.6 3.2 1.6 4.8 3.2 1.6 0 3.2 0 3.2 0 1.6 0 1.6 0 1.6-1.6l112-132.8zM555.2 440c1.6-1.6 3.2-4.8 4.8-6.4s1.6-3.2 1.6-4.8c0-1.6 0-1.6 0-3.2s0-1.6-1.6-1.6l-72-64c-3.2-1.6-4.8-3.2-8-3.2s-6.4 1.6-9.6 4.8l-112 126.4c-3.2 3.2-4.8 6.4-3.2 9.6 0 3.2 1.6 4.8 4.8 8l72 64c0 0 1.6 1.6 1.6 1.6s1.6 0 3.2 0c1.6 0 3.2-1.6 3.2-3.2 1.6-1.6 3.2-3.2 4.8-4.8s3.2-3.2 4.8-6.4c1.6-1.6 1.6-3.2 1.6-4.8s0-1.6 0-3.2 0-1.6-1.6-1.6l-51.2-44.8 32-35.2 43.2 38.4c0 0 1.6 1.6 1.6 1.6 1.6 0 1.6 0 3.2 0s3.2-1.6 3.2-3.2c1.6-1.6 3.2-3.2 4.8-4.8s3.2-4.8 4.8-4.8c1.6-1.6 1.6-3.2 1.6-4.8s0-1.6 0-3.2 0-1.6-1.6-1.6l-43.2-38.4 36.8-41.6 52.8 46.4c0 0 1.6 1.6 3.2 1.6s1.6 0 3.2 0 3.2-1.6 3.2-3.2c4.8-4.8 6.4-6.4 8-9.6zM737.6 593.6c1.6-1.6 1.6-4.8 1.6-6.4s0-3.2-1.6-6.4c-1.6-1.6-3.2-4.8-4.8-6.4-1.6-3.2-4.8-4.8-9.6-8s-8-6.4-11.2-9.6c-3.2-1.6-4.8-3.2-6.4-4.8-1.6 0-3.2-1.6-4.8 0-1.6 0-3.2 1.6-4.8 3.2l-104 73.6 59.2-110.4c1.6-1.6 1.6-3.2 1.6-4.8s0-3.2-1.6-4.8-3.2-3.2-4.8-6.4c-1.6-3.2-6.4-4.8-9.6-9.6-4.8-3.2-8-6.4-11.2-9.6-3.2-1.6-4.8-3.2-6.4-4.8-1.6 0-3.2-1.6-4.8 0-1.6 0-3.2 1.6-4.8 3.2l-144 97.6c-3.2 1.6-4.8 3.2-6.4 4.8s-1.6 3.2-1.6 4.8c0 1.6 1.6 3.2 3.2 6.4 1.6 1.6 4.8 4.8 8 8s6.4 4.8 8 6.4c1.6 1.6 3.2 3.2 4.8 3.2s3.2 0 3.2 0 3.2-1.6 4.8-3.2l123.2-88-70.4 132.8c-1.6 1.6-1.6 3.2-1.6 4.8s0 3.2 0 4.8c1.6 1.6 1.6 3.2 3.2 4.8s4.8 4.8 8 8c3.2 3.2 6.4 6.4 9.6 8 1.6 1.6 4.8 3.2 6.4 3.2s3.2 0 4.8 0c1.6 0 3.2-1.6 4.8-3.2l124.8-86.4-72 132.8c0 1.6-1.6 3.2-1.6 3.2 0 1.6 0 3.2 0 3.2 0 1.6 1.6 3.2 3.2 4.8s4.8 4.8 8 8c3.2 3.2 6.4 4.8 8 6.4s3.2 1.6 4.8 1.6c1.6 0 3.2-1.6 4.8-3.2s3.2-4.8 4.8-8l75.2-153.6z" />
<glyph unicode="&#xe623;" glyph-name="sale" d="M472 622.4l-1.6-11.2 40 4.8c0 0 1.6 0 1.6 0l38.4-4.8-1.6 11.2c65.6 12.8 200 43.2 275.2 108.8 30.4 25.6 46.4 59.2 46.4 96s-16 70.4-46.4 96c-56 48-153.6 48-211.2 0-49.6-41.6-81.6-104-102.4-158.4-20.8 54.4-54.4 116.8-102.4 158.4-56 48-153.6 48-211.2 0-30.4-25.6-46.4-59.2-46.4-96s16-70.4 46.4-96c76.8-65.6 209.6-97.6 275.2-108.8zM652.8 878.4c17.6 14.4 41.6 24 65.6 24 25.6 0 49.6-8 65.6-24 16-14.4 25.6-32 25.6-51.2s-9.6-36.8-25.6-51.2c-62.4-52.8-176-81.6-238.4-94.4 16 54.4 48 145.6 107.2 196.8zM235.2 876.8c17.6 14.4 41.6 22.4 65.6 22.4 25.6 0 48-8 65.6-22.4 59.2-49.6 91.2-140.8 105.6-193.6-62.4 12.8-176 40-238.4 92.8-16 14.4-25.6 32-25.6 49.6 3.2 20.8 11.2 38.4 27.2 51.2zM1024 598.4h-1024v-241.6h60.8v-420.8h904v422.4h59.2v240zM420.8 539.2h180.8l64-352-99.2 41.6-78.4-72-67.2 382.4zM60.8 539.2h299.2l20.8-120h-320v120zM904-3.2h-784v361.6h270.4l57.6-323.2 131.2 121.6 166.4-68.8-49.6 268.8h208v-360zM963.2 417.6h-278.4l-22.4 120h300.8v-120z" />
<glyph unicode="&#xe624;" glyph-name="search" horiz-adv-x="1043" d="M1033.6 70.4c11.2 12.8 11.2 33.6-1.6 44.8l-280 256c-12.8 11.2-33.6 11.2-44.8-1.6l-100.8-112c-11.2-12.8-11.2-33.6 1.6-44.8l280-254.4c12.8-11.2 33.6-11.2 44.8 1.6l100.8 110.4zM364.8 960c150.4 0 292.8-94.4 344-246.4 65.6-190.4-35.2-398.4-225.6-464-40-14.4-80-20.8-120-20.8-150.4 0-292.8 94.4-344 246.4-65.6 190.4 35.2 398.4 225.6 464 40 14.4 80 20.8 120 20.8zM364.8 860.8c-30.4 0-59.2-4.8-86.4-14.4v0c-67.2-24-121.6-72-152-134.4-30.4-64-35.2-136-12.8-203.2 36.8-107.2 137.6-179.2 251.2-179.2 28.8 0 59.2 4.8 86.4 14.4 67.2 24 121.6 72 152 134.4 30.4 64 35.2 136 12.8 203.2-36.8 107.2-137.6 179.2-251.2 179.2v0z" />
<glyph unicode="&#xe625;" glyph-name="sim" horiz-adv-x="781" d="M780.8 851.2c0 12.8-1.6 25.6-3.2 38.4-9.6 46.4-38.4 70.4-88 70.4-131.2 0-262.4 0-393.6 0-44.8 0-89.6 0-134.4 0-8 0-19.2-4.8-25.6-11.2-41.6-38.4-83.2-76.8-123.2-116.8-6.4-6.4-11.2-17.6-11.2-27.2-1.6-257.6 0-516.8-1.6-774.4 0-46.4 12.8-80 60.8-94.4 219.2 0 440 0 659.2 0 48 14.4 60.8 51.2 60.8 97.6 0 272 0 544 0 817.6zM710.4-4.8h-641.6c-8 3.2-11.2 9.6-11.2 35.2 0 150.4 0 302.4 1.6 452.8 0 104 0 209.6 0 313.6 36.8 35.2 73.6 70.4 112 104 19.2 0 36.8 0 56 0h464c20.8 0 25.6-4.8 28.8-24 1.6-8 3.2-17.6 3.2-27.2v-272c0-182.4 0-363.2 0-545.6-1.6-27.2-4.8-33.6-12.8-36.8zM675.2 46.4h-576v572.8h576v-572.8zM123.2 70.4h526.4v524.8h-526.4v-524.8z" />
<glyph unicode="&#xe626;" glyph-name="student" horiz-adv-x="2027" d="M581.451 467.382v46.839h46.839v-37.148c0-22.612-3.23-40.379-8.076-48.454-16.151-25.842-41.994-38.763-75.912-40.379v-62.991c0-33.918-3.23-59.76-11.306-79.142s-22.612-35.533-43.609-46.839c-20.997-12.921-48.454-17.767-82.372-17.767-66.221 0-108.215 20.997-125.981 61.375-9.691 19.382-12.921 46.839-12.921 82.372v188.972h46.839v-188.972c0-27.457 3.23-48.454 8.076-62.991 4.845-12.921 14.536-24.227 29.073-30.688 14.536-8.076 30.688-11.306 51.685-11.306 35.533 0 59.76 6.461 72.681 20.997 14.536 14.536 22.612 43.609 22.612 83.987v188.972h46.839v-109.83c25.842 1.615 43.609 11.306 54.915 27.457 4.845 6.461 6.461 17.767 6.461 35.533h-25.842zM888.328 514.221h46.839v-188.972c0-32.303-3.23-59.76-11.306-79.142s-22.612-35.533-43.609-46.839c-20.997-12.921-48.454-17.767-82.372-17.767s-59.76 4.845-80.757 16.151c-20.997 11.306-35.533 25.842-45.224 45.224s-12.921 46.839-12.921 82.372v188.972h46.839v-188.972c0-29.073 3.23-50.069 8.076-62.991 6.461-12.921 16.151-24.227 29.073-30.688 14.536-8.076 30.688-11.306 51.685-11.306 33.918 0 58.145 6.461 72.681 20.997s22.612 41.994 22.612 83.987v188.972zM1091.836 186.347v148.593h-38.763v29.073h38.763v148.593h121.136c27.457 0 48.454-1.615 62.991-4.845 20.997-4.845 37.148-12.921 51.685-24.227 19.382-14.536 32.303-33.918 41.994-56.53s14.536-48.454 14.536-77.527c0-33.918-6.461-61.375-17.767-85.603s-25.842-41.994-40.379-51.685-33.918-19.382-54.915-22.612c-11.306-3.23-29.073-3.23-51.685-3.23h-127.596zM1138.675 225.11h75.912c24.227 0 41.994 1.615 54.915 6.461 12.921 3.23 24.227 9.691 30.688 16.151 11.306 9.691 19.382 24.227 25.842 41.994s9.691 38.763 9.691 62.991c0 25.842-3.23 46.839-9.691 61.375s-14.536 27.457-24.227 37.148c-9.691 9.691-20.997 16.151-33.918 19.382s-30.688 4.845-56.53 4.845h-74.297v-109.83h96.909v-29.073h-96.909v-111.445zM1379.331 186.347l135.672 327.874h50.069l145.363-327.874h-53.3l-41.994 98.524h-146.978l-38.763-98.524h-50.069zM1463.319 535.218c0 16.151 4.845 27.457 14.536 37.148s20.997 14.536 35.533 14.536c9.691 0 24.227-3.23 40.379-11.306 9.691-4.845 17.767-6.461 22.612-6.461s9.691 1.615 11.306 3.23c3.23 3.23 4.845 8.076 6.461 16.151h30.688c0-17.767-4.845-29.073-14.536-38.763-8.076-8.076-19.382-12.921-33.918-12.921-9.691 0-24.227 4.845-40.379 12.921-11.306 4.845-19.382 8.076-24.227 8.076s-9.691-1.615-12.921-4.845c-3.23-3.23-4.845-8.076-4.845-16.151h-30.688zM1481.085 322.019h119.521l-37.148 90.448c-11.306 27.457-19.382 50.069-25.842 67.836-4.845-20.997-11.306-41.994-19.382-62.991l-37.148-95.293zM1724.972 186.347v327.874h46.839v-327.874h-46.839zM2010.852 604.669l-990.082 363.407c-4.845 1.615-9.691 1.615-16.151 0l-990.082-363.407c-9.691-3.23-14.536-11.306-14.536-20.997s6.461-17.767 16.151-20.997l214.814-64.606v46.839l-137.287 40.379 920.631 335.95 920.631-335.95-121.136-35.533v-46.839l198.662 59.76c9.691 3.23 16.151 11.306 16.151 20.997-1.615 9.691-8.076 17.767-17.767 20.997zM1012.694-64c-177.666 0-360.177 58.145-360.177 156.669v59.76l50.069-27.457v-33.918c0-51.685 132.442-108.215 311.722-108.215 177.666 0 311.722 56.53 311.722 108.215v33.918l46.839 27.457v-59.76c0-98.524-182.511-156.669-360.177-156.669zM1949.476 254.183l6.461 6.461c11.306 9.691 16.151 22.612 16.151 35.533 0 19.382-12.921 37.148-30.688 43.609l-9.691 3.23v218.044l-12.921-6.461v-211.584l-8.076-3.23c-19.382-6.461-30.688-24.227-30.688-43.609 0-12.921 6.461-25.842 16.151-35.533l6.461-6.461-56.53-182.511c-3.23-11.306-1.615-22.612 4.845-32.303s17.767-14.536 29.073-14.536h92.063c11.306 0 22.612 4.845 29.073 14.536s8.076 20.997 4.845 32.303l-56.53 182.511zM1910.713 565.905h30.688v-235.811h-30.688v235.811z" />
<glyph unicode="&#xe627;" glyph-name="tablet" horiz-adv-x="904" d="M497.6 86.4c0-25.6-20.8-44.8-44.8-44.8-25.6 0-44.8 20.8-44.8 44.8 0 25.6 20.8 44.8 44.8 44.8s44.8-19.2 44.8-44.8zM904 870.4v-843.2c0-49.6-38.4-89.6-83.2-89.6h-736c-46.4-1.6-84.8 38.4-84.8 88v844.8c0 49.6 38.4 89.6 83.2 89.6h736c46.4 0 84.8-40 84.8-89.6zM843.2 870.4c0 16-11.2 30.4-24 30.4h-736c-12.8 0-24-14.4-24-30.4v-843.2c0-16 11.2-30.4 24-30.4h736c12.8 0 24 14.4 24 30.4v843.2z" />
<glyph unicode="&#xe628;" glyph-name="telephone" horiz-adv-x="1245" d="M620.8-64c-150.4 0-302.4 0-452.8 0-97.6 0-168 68.8-168 166.4 0 36.8 0 72 1.6 108.8s16 70.4 43.2 97.6c104 105.6 208 209.6 313.6 315.2 28.8 28.8 65.6 43.2 107.2 43.2 104 0 208 0 313.6 0 40 0 76.8-14.4 105.6-43.2 105.6-104 209.6-209.6 315.2-313.6 27.2-27.2 43.2-60.8 44.8-100.8 1.6-43.2 3.2-86.4-1.6-128-6.4-81.6-75.2-144-158.4-144-155.2-1.6-310.4-1.6-464-1.6zM622.4 558.4c-140.8 0-256-115.2-256-256 1.6-140.8 115.2-254.4 256-256s256 115.2 257.6 256c-1.6 140.8-116.8 256-257.6 256zM622.4 960c139.2 0 278.4 0 417.6 0 96 0 166.4-68.8 166.4-166.4 0-38.4 0-76.8 0-113.6 0-49.6-35.2-83.2-83.2-83.2-20.8 0-43.2 0-64-1.6-24 0-43.2 8-59.2 24-36.8 36.8-73.6 73.6-110.4 112-6.4 6.4-14.4 9.6-24 9.6-161.6 0-323.2 0-484.8 0-11.2 0-17.6-3.2-25.6-11.2-35.2-36.8-72-72-107.2-108.8-19.2-19.2-41.6-28.8-67.2-27.2-20.8 0-41.6 0-60.8 0-44.8 1.6-80 32-81.6 75.2-1.6 46.4-3.2 94.4 0 140.8 6.4 88 73.6 150.4 161.6 150.4 140.8 0 281.6 0 422.4 0v0zM622.4 411.2c60.8 0 108.8-49.6 108.8-108.8 0-60.8-49.6-110.4-110.4-110.4s-108.8 49.6-108.8 112c0 59.2 49.6 107.2 110.4 107.2z" />
<glyph unicode="&#xe629;" glyph-name="truck" horiz-adv-x="1603" d="M1086.4 150.4c-8 0-14.4 0-22.4 0-164.8 0-328 0-492.8 0-16 0-24 4.8-30.4 20.8-30.4 84.8-108.8 139.2-200 139.2-89.6 0-168-54.4-198.4-139.2-4.8-16-11.2-20.8-28.8-20.8-19.2 1.6-38.4 0-56 0-28.8 1.6-54.4 24-57.6 49.6-4.8 32 11.2 62.4 41.6 70.4 16 4.8 17.6 12.8 17.6 25.6 0 212.8 0 427.2 0 640 0 8 0 14.4 0 24 9.6 0 16 0 24 0 302.4 0 604.8-1.6 908.8 0 54.4 0 96-30.4 96-92.8 0-235.2 0-472 0-707.2 0-3.2-1.6-4.8-1.6-9.6zM1150.4 244.8c0 160 0 316.8 0 473.6 6.4 0 12.8 1.6 19.2 1.6 81.6 0 164.8 0 246.4 0 24 0 46.4-8 60.8-27.2 52.8-72 102.4-147.2 123.2-236.8 1.6-8 3.2-16 3.2-24 0-84.8 0-169.6 0-254.4 0-24-6.4-32-30.4-33.6-1.6 0-4.8 0-6.4 0-33.6-4.8-54.4 3.2-70.4 41.6-56 131.2-227.2 164.8-332.8 70.4-3.2-3.2-6.4-6.4-12.8-11.2zM1526.4 518.4c-32 49.6-60.8 94.4-89.6 139.2-3.2 4.8-16 8-24 8-33.6 1.6-67.2 0-100.8 0-25.6 0-51.2 0-76.8 0 0-51.2 0-99.2 0-147.2 96 0 190.4 0 291.2 0zM182.4 96c0 89.6 72 161.6 160 161.6s163.2-73.6 163.2-161.6c0-86.4-73.6-160-161.6-160s-161.6 72-161.6 160zM270.4 97.6c0-41.6 32-73.6 73.6-73.6s73.6 32 73.6 73.6c0 41.6-32 75.2-73.6 75.2-41.6-1.6-73.6-33.6-73.6-75.2zM1465.6 96c0-88-72-160-161.6-160-88 0-161.6 73.6-161.6 161.6s73.6 161.6 163.2 161.6c88-1.6 160-73.6 160-163.2zM1377.6 96c0 41.6-32 73.6-73.6 73.6s-73.6-32-73.6-73.6c0-41.6 32-73.6 73.6-73.6s73.6 32 73.6 73.6z" />
<glyph unicode="&#xe62a;" glyph-name="check" horiz-adv-x="1003" d="M1003.2 920l-644.8-984-358.4 320 48 54.4 296-264 598.4 913.6c0 0 60.8-40 60.8-40z" />
<glyph unicode="&#xe62b;" glyph-name="close" d="M561.6 448l462.4-462.4-49.6-49.6-462.4 462.4-462.4-462.4-49.6 49.6 462.4 462.4-462.4 462.4 49.6 49.6 462.4-462.4 462.4 462.4 49.6-49.6-462.4-462.4z" />
<glyph unicode="&#xe62c;" glyph-name="alert" horiz-adv-x="1174" d="M579.683 960l-579.683-1019.222h1164.143c0 0-584.46 1019.222-584.46 1019.222zM579.683 818.264l463.428-807.415h-922.078c0 0 458.65 807.415 458.65 807.415zM617.904 295.913h-70.072v277.101h70.072v-277.101zM652.939 149.4c0-38.221-31.851-70.072-70.072-70.072s-70.072 31.851-70.072 70.072 31.851 70.072 70.072 70.072 70.072-31.851 70.072-70.072z" />
<glyph unicode="&#xe62d;" glyph-name="app-game" horiz-adv-x="1245" d="M657.6 742.4v217.6h-73.6v-217.6c-259.2-8-584-94.4-584-182.4v-515.2c0-59.2 49.6-108.8 108.8-108.8h131.2l145.6 286.4c41.6-8 124.8-20.8 232-20.8 108.8 0 196.8 12.8 240 20.8l139.2-288h134.4c60.8 0 108.8 49.6 108.8 108.8v516.8c1.6 88-321.6 174.4-582.4 182.4zM1169.6 44.8c0-20.8-16-36.8-36.8-36.8h-89.6l-144 297.6-28.8-6.4c-1.6 0-110.4-24-252.8-24s-241.6 24-243.2 24l-28.8 6.4-150.4-297.6h-86.4c-20.8 0-36.8 16-36.8 36.8v505.6c36.8 32 246.4 110.4 512 118.4v-1.6h73.6v1.6c264-6.4 475.2-86.4 512-118.4 0 0 0-505.6 0-505.6zM364.8 520h73.6v-73.6h-73.6v-75.2h-73.6v75.2h-73.6v73.6h73.6v75.2h73.6c0 0 0-75.2 0-75.2zM913.6 374.4c60.8 0 108.8 49.6 108.8 108.8s-49.6 108.8-108.8 108.8c-60.8 0-108.8-49.6-108.8-108.8s48-108.8 108.8-108.8zM913.6 520c20.8 0 36.8-16 36.8-36.8s-16-36.8-36.8-36.8-36.8 16-36.8 36.8 16 36.8 36.8 36.8z" />
<glyph unicode="&#xe62e;" glyph-name="back-left" horiz-adv-x="896" d="M897.6 568c0-216-176-392-392-392h-208l188.8-188.8-51.2-51.2-273.6 275.2 275.2 275.2 51.2-51.2-190.4-188.8h208c177.6 0 321.6 144 321.6 321.6s-144 321.6-321.6 321.6h-505.6v70.4h505.6c216 0 392-176 392-392z" />
<glyph unicode="&#xe62f;" glyph-name="back-right" horiz-adv-x="896" d="M897.6 8v-72h-505.6c-216 0-392 176-392 392s176 392 392 392h208l-188.8 188.8 51.2 51.2 273.6-275.2-273.6-275.2-51.2 51.2 188.8 188.8h-208c-177.6 0-321.6-144-321.6-321.6s144-321.6 321.6-321.6h505.6z" />
<glyph unicode="&#xe630;" glyph-name="thumb-down" horiz-adv-x="994" d="M993.742 405.798c0-20.703-15.925-36.628-36.628-36.628h-167.216l-226.14-364.691c-35.036-58.924-79.627-66.886-103.515-66.886v0c-35.036 0-70.072 19.11-87.589 49.369-27.073 44.591-17.518 106.7-6.37 154.476l30.258 156.068h-283.471c-62.109 0-113.070 49.369-113.070 109.885 0 39.813 22.295 74.849 54.146 93.96-11.148 15.925-19.11 33.443-19.11 54.146 0 38.221 17.518 71.664 46.184 90.774-9.555 17.518-14.333 36.628-14.333 55.739 0 41.406 23.888 78.034 60.516 95.552-9.555 17.518-12.74 36.628-12.74 49.369 0 68.479 42.998 108.292 113.070 108.292h412.467c55.739 0 93.96-30.258 121.033-50.961 15.925-12.74 31.851-23.888 41.406-23.888h154.476c20.703 0 36.628-15.925 36.628-36.628s-15.925-36.628-36.628-36.628h-154.476c-35.036 0-62.109 20.703-85.997 39.813s-46.184 36.628-76.442 36.628h-410.874c-33.443 0-39.813-12.74-39.813-35.036 0-11.148 0-38.221 74.849-38.221h6.37c20.703 0 36.628-15.925 36.628-36.628s-15.925-36.628-36.628-36.628h-92.367c-22.295 0-38.221-14.333-38.221-35.036 0-33.443 33.443-38.221 52.554-38.221h55.739c20.703 0 36.628-15.925 36.628-36.628s-15.925-36.628-36.628-36.628h-105.107c-23.888 0-33.443-19.11-33.443-35.036 0-12.74 27.073-33.443 50.961-38.221h70.072c20.703 0 36.628-15.925 36.628-36.628s-15.925-36.628-36.628-36.628h-71.664c0 0-1.593 0-1.593 0h-44.591c-22.295 0-39.813-15.925-39.813-36.628s17.518-36.628 39.813-36.628h326.47c11.148 0 20.703-4.778 28.666-12.74 6.37-7.963 9.555-19.11 7.963-30.258l-38.221-200.659c-4.778-20.703-17.518-76.442-3.185-101.922 3.185-6.37 12.74-12.74 25.481-12.74 14.333 0 28.666 11.148 41.406 31.851l237.288 383.801c6.37 11.148 19.11 17.518 31.851 17.518h187.919c19.11-3.185 35.036-19.11 35.036-39.813z" />
<glyph unicode="&#xe631;" glyph-name="thumb-up" horiz-adv-x="994" d="M946.087 397.118c6.36-14.311 9.54-33.391 9.54-58.832 0-38.161-17.491-71.553-46.112-90.634 9.54-17.491 14.311-36.571 14.311-55.652 0-41.342-22.261-76.323-57.242-93.814 6.36-14.311 9.54-30.211 9.54-50.882 0-33.391-9.54-58.832-28.621-77.913-20.671-20.671-49.292-30.211-84.273-30.211h-410.236c-55.652 0-93.814 30.211-120.845 50.882-15.901 12.72-31.801 23.851-41.342 23.851h-154.236c-20.671 0-36.571 15.901-36.571 36.571s15.901 34.981 36.571 34.981h154.236c34.981 0 62.012-20.671 85.863-39.752s46.112-34.981 76.323-34.981h411.826c15.901 0 27.031 3.18 33.391 9.54 4.77 4.77 7.95 14.311 7.95 27.031 0 31.801-6.36 38.161-74.733 38.161h-7.95c-20.671 0-36.571 15.901-36.571 36.571s15.901 36.571 36.571 36.571h92.224c22.261 0 38.161 14.311 38.161 34.981 0 33.391-33.391 38.161-52.472 38.161h-55.652c-20.671 0-36.571 15.901-36.571 36.571s15.901 36.571 36.571 36.571h104.944c23.851 0 33.391 19.081 33.391 34.981 0 36.571 0 36.571-31.801 36.571-3.18 0-7.95 0-11.13 0h-77.913c-20.671 0-36.571 15.901-36.571 36.571s15.901 36.571 36.571 36.571h71.553c0 0 1.59 0 1.59 0h46.112c22.261 0 39.752 15.901 39.752 36.571s-17.491 36.571-39.752 36.571h-327.553c-11.13 0-20.671 4.77-28.621 12.72-6.36 7.95-9.54 19.081-7.95 30.211l38.161 200.348c4.77 20.671 17.491 76.323 3.18 101.764-4.77 6.36-14.311 12.72-25.441 12.72v0c-14.311 0-28.621-11.13-41.342-31.801l-236.919-383.205c-6.36-11.13-19.081-17.491-31.801-17.491h-187.627c-20.671 0-36.571 15.901-36.571 36.571s15.901 36.571 36.571 36.571h166.957l225.789 365.714c34.981 58.832 79.503 66.783 103.354 66.783 0 0 0 0 0 0 34.981 0 69.963-19.081 87.453-49.292 27.031-44.522 17.491-104.944 6.36-154.236l-30.211-155.826h281.441c62.012 0 112.894-49.292 112.894-109.714 1.59-34.981-15.901-68.373-44.522-87.453z" />
<glyph unicode="&#xe900;" glyph-name="apps" d="M414.4 960h-353.28c-33.756 0-61.12-27.364-61.12-61.12v-353.28c0-33.756 27.364-61.12 61.12-61.12h353.28c33.756 0 61.12 27.364 61.12 61.12v353.28c0 33.756-27.364 61.12-61.12 61.12v0zM438.88 545.6c0-13.52-10.96-24.48-24.48-24.48h-353.28c-13.52 0-24.48 10.96-24.48 24.48v353.28c0 13.52 10.96 24.48 24.48 24.48h353.28c13.52 0 24.48-10.96 24.48-24.48v-353.28zM962.88 960h-353.28c-33.756 0-61.12-27.364-61.12-61.12v-353.28c0-33.756 27.364-61.12 61.12-61.12h353.28c33.756 0 61.12 27.364 61.12 61.12v353.28c0 33.756-27.364 61.12-61.12 61.12v0zM987.36 545.6c0-13.52-10.96-24.48-24.48-24.48h-353.28c-13.52 0-24.48 10.96-24.48 24.48v353.28c0 13.52 10.96 24.48 24.48 24.48h353.28c13.52 0 24.48-10.96 24.48-24.48v-353.28zM414.4 411.52h-353.28c-33.756 0-61.12-27.364-61.12-61.12v-353.28c0-33.756 27.364-61.12 61.12-61.12h353.28c33.756 0 61.12 27.364 61.12 61.12v353.28c0 33.756-27.364 61.12-61.12 61.12v0zM438.88-2.88c0-13.52-10.96-24.48-24.48-24.48h-353.28c-13.52 0-24.48 10.96-24.48 24.48v353.28c0 13.52 10.96 24.48 24.48 24.48h353.28c13.52 0 24.48-10.96 24.48-24.48v-353.28zM1005.76 192h-201.28v201.12c0 10.074-8.166 18.24-18.24 18.24s-18.24-8.166-18.24-18.24v-201.12h-201.12c-10.074 0-18.24-8.166-18.24-18.24s8.166-18.24 18.24-18.24h201.12v-201.28c0-10.074 8.166-18.24 18.24-18.24s18.24 8.166 18.24 18.24v201.28h201.28c10.074 0 18.24 8.166 18.24 18.24s-8.166 18.24-18.24 18.24v0z" />
<glyph unicode="&#xe901;" glyph-name="cheap" horiz-adv-x="894" d="M691.040 924.96c25.361 0 45.92-20.559 45.92-45.92v-547.36h115.2c3.676-0.155 6.598-3.174 6.598-6.874 0-1.951-0.812-3.712-2.116-4.964l-379.202-337.282c-8.068-7.185-18.761-11.574-30.48-11.574s-22.412 4.39-30.526 11.615l-379.154 337.4c-1.451 1.24-2.364 3.072-2.364 5.117 0 0.864 0.163 1.69 0.46 2.448 0.981 2.578 3.466 4.413 6.382 4.434h115.203v547.040c0 25.361 20.559 45.92 45.92 45.92h488.16zM691.040 960h-488.16c-44.713 0-80.96-36.247-80.96-80.96v-512h-80c-0.19 0.003-0.413 0.005-0.638 0.005-23.063 0-41.76-18.697-41.76-41.76 0-12.647 5.622-23.981 14.504-31.639l379.254-337.326c14.227-12.679 33.089-20.426 53.76-20.426s39.533 7.747 53.841 20.496l379.119 337.209c8.716 7.691 14.185 18.887 14.185 31.361 0 23.063-18.697 41.76-41.76 41.76-0.093 0-0.186 0-0.279-0.001h-79.986v512c0 0.095 0.001 0.208 0.001 0.32 0 44.713-36.247 80.96-80.96 80.96-0.056 0-0.113 0-0.169 0h0.009zM461.76 283.2c-44.48 0-78.56 11.040-101.12 32.96s-33.92 54.4-33.92 97.12v7.68h39.84v-8.96c-0.143-1.999-0.225-4.33-0.225-6.681 0-25.748 9.81-49.205 25.895-66.837 17.966-15.874 41.818-25.613 67.946-25.613 2.528 0 5.035 0.091 7.517 0.27 1.231-0.107 3.061-0.158 4.902-0.158 25.006 0 47.848 9.268 65.278 24.555 16.047 15.743 26.064 37.798 26.064 62.193 0 1.446-0.035 2.883-0.105 4.311 0.082 1.091 0.125 2.602 0.125 4.123 0 18.169-6.057 34.923-16.261 48.353-10.096 12.282-32.496 23.482-67.696 36.282l-33.92 11.36c-27.294 7.087-51.193 16.834-73.379 29.273-10.692 8.958-20.451 21.28-27.005 35.392-6.539 14.598-10.198 30.925-10.198 48.106 0 0.798 0.008 1.594 0.024 2.388-0.153 2.049-0.24 4.579-0.24 7.129 0 30.697 12.51 58.472 32.71 78.504 23.829 20.034 54.838 32.201 88.69 32.201 2.574 0 5.132-0.070 7.671-0.209 2.009 0.162 4.77 0.246 7.551 0.246 31.682 0 60.826-10.872 83.902-29.089 19.518-17.82 31.897-43.714 31.897-72.498 0-2.112-0.067-4.209-0.198-6.288l0.014-4.036h-36.8c0.014 0.581 0.022 1.265 0.022 1.951 0 22.336-8.652 42.651-22.787 57.777-15.302 14.048-35.857 22.688-58.429 22.688-1.944 0-3.874-0.064-5.786-0.19-1.31 0.103-3.146 0.154-4.994 0.154-23.191 0-44.512-8.010-61.346-21.414-15.081-13.396-24.664-33.078-24.664-54.999 0-1.086 0.024-2.166 0.070-3.24-0.076-1.103-0.116-2.573-0.116-4.052 0-18.719 6.429-35.936 17.199-49.564 10.912-12.472 33.952-24.312 70.112-36.152l18.24-6.080c64-20.96 85.44-32 92-37.28 11.161-9.029 19.864-20.663 25.239-33.997 2.867-7.009 5.088-14.582 6.498-22.435 1.531-8.552 2.348-17.603 2.348-26.845 0-0.479-0.002-0.957-0.007-1.435 0.123-1.951 0.192-4.318 0.192-6.701 0-34.157-14.309-64.972-37.261-86.778-26.085-21.062-59.577-33.78-96.039-33.78-3.325 0-6.626 0.106-9.899 0.314zM452.64 761.92h25.76v-504.32h-25.76v504.32z" />
<glyph unicode="&#xe902;" glyph-name="gift2" horiz-adv-x="980" d="M924 715.36h-279.040c39.269 32.807 64.071 81.795 64.071 136.576 0 1.767-0.026 3.527-0.077 5.282-0.794 61.502-36.954 101.502-94.234 101.502-51.47-0.483-96.824-26.234-124.313-65.428-28.146 39.342-73.3 65.41-124.61 66.704-56.037 0.004-93.797-41.436-93.797-103.196-0.044-1.472-0.069-3.204-0.069-4.941 0-54.757 24.803-103.721 63.787-136.27l-279.398-0.229c-0.149 0.001-0.324 0.002-0.5 0.002-30.928 0-56-25.072-56-56 0-1.578 0.065-3.14 0.193-4.685l-0.013-79.798c0-35.36 24.16-75.040 56.32-75.040h19.84c-0.087-1.339-0.136-2.904-0.136-4.48s0.050-3.141 0.147-4.692l-0.011-479.788c0-35.52 24.16-75.2 56.32-75.2h715.52c32 0 56.32 39.68 56.32 75.2v480c0.087 1.339 0.137 2.904 0.137 4.48s-0.050 3.141-0.147 4.692l19.851-0.212c32 0 56.32 39.68 56.32 75.040v80c0.115 1.343 0.18 2.906 0.18 4.484 0 30.928-25.072 56-56 56-0.232 0-0.464-0.001-0.695-0.004zM861.92 491.36v-480c0.034-0.487 0.054-1.055 0.054-1.628 0-9.73-5.64-18.143-13.828-22.148l-336.146-0.064v512h336c13.92 0.64 13.92-4.8 13.92-8.32zM512 724v100.32c0 46.88 56.48 84.64 103.2 84.64 23.040 0 50.56-8.32 50.56-48 0-55.36-27.2-96-80.96-118.4-21.245-9.112-45.882-15.666-71.647-18.459zM937.6 654.88v-80c0.021-0.382 0.033-0.829 0.033-1.278 0-9.651-5.478-18.023-13.494-22.176l-412.139-0.065v112h412c13.6 0.48 13.6-4.96 13.6-8.48zM468.8 500.16v-512h-336c-8.571 3.981-14.408 12.517-14.408 22.415 0 0.22 0.003 0.439 0.009 0.657l-0.001 479.968c0 3.52 0 8.96 13.44 8.96h336zM468.8 663.84v-112h-412.48c-8.069 4.246-13.477 12.572-13.477 22.162 0 0.478 0.013 0.952 0.040 1.424l-0.003 79.935c0 3.52 0 8.96 13.44 8.96h412.48zM468.8 823.84v-100.32c-43.68 4.48-153.76 26.88-153.76 136.64 0 40 27.52 48 50.56 48 46.72 0.8 103.2-36.96 103.2-83.84zM86.080 507.68v0zM894.4 507.68v0z" />
<glyph unicode="&#xe903;" glyph-name="hand-two" horiz-adv-x="1600" d="M1260.16 273.92c-54.72 60.96-105.44 118.24-156.16 174.080-76.96 84.48-154.72 168.32-231.52 252.8-7.606 10.589-19.886 17.405-33.758 17.405-9.56 0-18.365-3.237-25.376-8.676-73.826-40.57-149.026-78.97-223.906-118.010-5.558-3.006-12.309-6.076-19.271-8.717-35.769-13.203-63.289-7.283-76.569 15.597-5.11 9.317-8.116 20.416-8.116 32.216 0 20.784 9.324 39.39 24.018 51.863 21.901 19.425 45.685 38.23 70.504 55.661 70.874 48.74 139.994 92.9 209.114 138.66 81.6 54.56 162.24 56.48 243.52 0 12.96-9.28 26.88-17.28 39.36-26.72 44.16-32 89.6-48 141.44-8.32 6.080-9.76 10.88-17.28 15.040-25.76 52.96-102.4 98.24-209.92 161.44-305.44 41.28-62.24 8.96-93.92-23.040-131.2s-69.76-68.96-106.72-105.44zM1600 522.56c-5.785-8.799-12.561-16.338-20.31-22.743-20.643-12.939-45.040-26.123-70.251-37.853-24.319-10.764-40.159-10.924-53.439 15.476-63.040 125.44-129.12 249.44-193.92 374.080-19.2 36.8-16 46.24 21.76 65.92 18.24 9.6 36.32 19.36 54.72 28.64 28.64 13.92 40 11.040 56-19.36 42.080-80 83.52-161.44 125.28-242.080 23.2-44.96 46.72-89.76 69.76-134.88 3.68-7.36 6.080-15.52 10.4-27.2zM297.92 908.32c-4.32-13.6-6.56-21.76-9.6-29.6q-72.48-192-145.12-384c-17.44-46.72-21.92-47.52-69.6-30.72-16 5.6-32 10.72-48 16-25.6 10.4-31.040 22.72-20.48 51.2q58.88 155.2 116.8 310.4c11.68 30.72 23.36 61.28 34.88 92 8.8 23.52 23.36 32 48 22.4s46.72-14.56 68.8-24.48c9.504-6.396 17.554-14.090 24.135-22.94zM1284.8 248.16c14.4-73.28-41.44-115.36-118.080-101.44-19.36-27.84-33.44-56.8-55.52-77.28-24.64-22.88-57.44-17.6-90.080-4.16-9.76-38.4-22.88-75.68-64-88.16-15.462-2.873-33.252-4.516-51.425-4.516-5.098 0-10.166 0.129-15.201 0.385 8.386 25.411 13.346 39.331 37.826 36.131s38.24 12.32 48 32c4.943 8.867 7.853 19.452 7.853 30.716 0 16.523-6.262 31.584-16.541 42.939-31.951 37.225-63.951 73.545-95.951 110.345-5.816 4.547-10.397 10.411-13.33 17.157 0.378 10.466 2.449 20.022 5.863 28.912 8.406-1.212 16.32-3.753 23.24-7.805 42.308-45.943 84.068-92.823 125.828-139.703 30.4-34.080 59.2-41.12 84.48-20.32 14.339 12.778 23.326 31.298 23.326 51.917 0 18.909-7.558 36.053-19.818 48.575-34.388 39.508-70.228 77.908-105.268 116.948-6.309 5.312-11.27 12.020-14.435 19.66-0.133 0.783-0.138 1.305-0.138 1.829 0 9.198 1.528 18.039 4.343 26.283-0.074-0.572 0.040-0.571 0.153-0.571 9.064 0 17.603-2.25 25.088-6.222 45.95-50.259 90.91-101.779 136.35-152.819 39.68-44.48 74.56-40.8 106.4 9.6 9.23 11.049 19.411 20.773 30.581 29.265zM757.44 907.36c-8.834-9.929-21.647-16.153-35.913-16.153-5.351 0-10.498 0.876-15.305 2.492-6.568 1.307-14.506 2.111-22.632 2.111-14.183 0-27.793-2.451-40.431-6.952-28.19-10.56-53.085-22.95-76.443-37.568-64.795-37.21-130.555-54.010-196.635 7.11-4.8-10.56-8.48-17.76-11.36-25.12-44.16-115.52-87.52-231.2-132.8-346.24-10.24-26.080 9.28-35.040 21.28-48 28.32-32 57.44-64 87.36-96l-24.16-28.16c-39.68 44.64-78.56 87.040-115.36 131.36-5.014 7.033-8.017 15.802-8.017 25.272 0 3.985 0.532 7.846 1.528 11.516 47.929 127.693 95.929 255.693 145.209 383.693 1.878 6.12 4.215 11.42 7.081 16.376 5.839 9.892 16.833 16.675 29.412 16.675 11.231 0 21.199-5.407 27.443-13.761 15.196-19.362 38.495-31.628 64.66-31.628 11.332 0 22.126 2.301 31.941 6.461 27.463 10.038 53.063 26.678 80.743 37.878 28.65 13.181 62.786 25.329 98.109 34.535 9.428 2.027 15.147 2.623 21.005 2.623 25.15 0 47.734-10.99 63.21-28.43zM803.84 181.92c-8.68-19.291-18.844-35.917-30.789-51.072-33.851-34.048-70.811-65.728-107.131-98.208-27.68-24.8-52.8-27.040-75.2-7.68s-32 64-8.64 86.56c42.875 44.634 88.139 86.044 135.949 124.41 35.091 27.11 79.571-5.37 85.811-54.010zM672 262.24c-9.552-20.341-20.223-37.828-32.528-54.004-25.232-26.156-54.192-50.316-81.872-75.276s-54.24-28.16-76.8-7.2c-12.959 11.757-21.063 28.662-21.063 47.46 0 15.802 5.727 30.267 15.219 41.431 33.12 34.523 68.427 66.432 105.895 95.702 9.906 5.896 19.102 8.396 28.882 8.396 8.916 0 17.348-2.078 24.836-5.776 15.511-8.973 23.991-31.533 37.431-50.733zM880.96 50.72c-7.38-17.738-15.366-32.834-24.545-47.089-13.347-15.841-27.841-31.146-43.299-45.422-23.197-23.169-45.917-27.969-68.157-15.329s-40.96 48.8-24.96 73.12c23.318 36.381 51.819 67.123 84.88 92.161 31.76 21.759 72.080-12.161 76.080-57.441zM330.4 252c3.508 38.447 31.281 69.526 67.727 77.964 2.438 0.327 4.575 0.447 6.741 0.447 31.547 0 57.12-25.573 57.12-57.12 0-9.527-2.332-18.509-6.457-26.407-14.058-23.283-34.619-41.785-59.176-53.1-32.994-15.065-65.954 17.575-65.954 58.215z" />
<glyph unicode="&#xe904;" glyph-name="news2" horiz-adv-x="1352" d="M566.72 339.2h-438.72c-10.56 0-19.12-8.56-19.12-19.12s8.56-19.12 19.12-19.12h438.72c10.56 0 19.12 8.56 19.12 19.12s-8.56 19.12-19.12 19.12zM566.72 229.76h-438.72c-9.402-1.262-16.577-9.233-16.577-18.88s7.175-17.618 16.479-18.869l438.818-0.011c9.402 1.262 16.577 9.233 16.577 18.88s-7.175 17.618-16.479 18.869zM640 520.16h437.92c10.56 0 19.12 8.56 19.12 19.12s-8.56 19.12-19.12 19.12h-437.92c-10.56 0-19.12-8.56-19.12-19.12s8.56-19.12 19.12-19.12zM640 739.2h437.92c10.56 0 19.12 8.56 19.12 19.12s-8.56 19.12-19.12 19.12h-437.92c-10.56 0-19.12-8.56-19.12-19.12s8.56-19.12 19.12-19.12zM640 629.6h437.92c10.56 0 19.12 8.56 19.12 19.12s-8.56 19.12-19.12 19.12h-437.92c-10.56 0-19.12-8.56-19.12-19.12s8.56-19.12 19.12-19.12zM566.72 120.32h-438.72c-10.56 0-19.12-8.56-19.12-19.12s8.56-19.12 19.12-19.12h438.72c10.56 0 19.12 8.56 19.12 19.12s-8.56 19.12-19.12 19.12zM1083.040 339.2h-438.080c-10.56 0-19.12-8.56-19.12-19.12s8.56-19.12 19.12-19.12h438.080c10.56 0 19.12 8.56 19.12 19.12s-8.56 19.12-19.12 19.12zM1333.44 850.4h-127.040v90.56c0 10.516-8.524 19.040-19.040 19.040h-1168c-0.095 0.002-0.207 0.003-0.32 0.003-10.516 0-19.040-8.524-19.040-19.040 0-0.001 0-0.002 0-0.003v-910.080c0 0 0 0 0 0 0-52.345 42.388-94.789 94.711-94.88h1165.769c50.899 0 92.16 41.261 92.16 92.16v803.84c-0.355 10.237-8.739 18.401-19.029 18.401-0.060 0-0.12 0-0.18-0.001zM1260.48-25.76c-29.743 0.091-53.829 24.177-53.92 53.911v38.089c0 10.516-8.524 19.040-19.040 19.040s-19.040-8.524-19.040-19.040v-38.080c0-0.053 0-0.116 0-0.179 0-20.195 6.541-38.862 17.62-53.999l-1091.38 0.258c-31.281 0-56.64 25.359-56.64 56.64v890.88h1129.92v-727.2c0-10.516 8.524-19.040 19.040-19.040s19.040 8.524 19.040 19.040v617.76h107.84v-784c0-0.001 0-0.002 0-0.004 0-29.643-23.849-53.715-53.406-54.076zM566.72 777.44h-438.72c-10.237-0.355-18.4-8.739-18.4-19.029 0-0.004 0-0.008 0-0.011v-328.639c0-0.003 0-0.007 0-0.011 0-10.29 8.163-18.674 18.368-19.028l438.752-0.001c10.516 0 19.040 8.524 19.040 19.040v328.64c0 10.516-8.524 19.040-19.040 19.040zM547.68 739.2v-290.4h-400v290.4h400zM1083.040 229.76h-438.080c-10.56 0-19.12-8.56-19.12-19.12s8.56-19.12 19.12-19.12h438.080c10.56 0 19.12 8.56 19.12 19.12s-8.56 19.12-19.12 19.12zM1083.040 120.32h-438.080c-10.56 0-19.12-8.56-19.12-19.12s8.56-19.12 19.12-19.12h438.080c10.56 0 19.12 8.56 19.12 19.12s-8.56 19.12-19.12 19.12zM640 410.56h437.92c10.56 0 19.12 8.56 19.12 19.12s-8.56 19.12-19.12 19.12h-437.92c-10.56 0-19.12-8.56-19.12-19.12s8.56-19.12 19.12-19.12z" />
<glyph unicode="&#xe905;" glyph-name="refresh" horiz-adv-x="1308" d="M1138.56 424.16c-3.752 0.552-7.108 1.91-10.001 3.892l-210.959 143.948c-7.878 4.045-13.175 12.114-13.175 21.42 0 13.255 10.745 24 24 24 5.959 0 11.411-2.172 15.607-5.767l172.608-117.733-6.24 37.28c-41.040 217.732-229.731 380.23-456.376 380.23-127.895 0-243.704-51.744-327.635-135.44-4.264-3.981-10.021-6.431-16.351-6.431-13.255 0-24 10.745-24 24 0 6.33 2.45 12.087 6.454 16.375 92.166 92.691 219.791 150.067 360.816 150.067 0.271 0 0.542 0 0.813-0.001 243.984-1.1 447.832-171.791 499.778-400.228l8.5-39.452 101.6 149.6c4.382 6.367 11.63 10.489 19.84 10.489 13.26 0 24.009-10.749 24.009-24.009 0-5.049-1.559-9.735-4.221-13.601l-142.187-207.919c-4.367-6.396-11.617-10.544-19.838-10.56zM654.080-64c-243.961 1.179-447.727 171.844-499.66 400.229l-8.5 39.451-102.080-149.6c-4.338-6.665-11.752-11.010-20.181-11.010-11.831 0-21.663 8.561-23.638 19.826-0.303 1.511-0.465 3.082-0.465 4.691 0 5.070 1.604 9.765 4.333 13.606l142.191 207.927c4.386 6.317 11.604 10.4 19.775 10.4 5.043 0 9.723-1.556 13.586-4.213l210.959-143.947c6.371-4.38 10.496-11.628 10.496-19.84 0-13.255-10.745-24-24-24-0.034 0-0.067 0-0.101 0-0.009 0-0.025 0-0.041 0-5.059 0-9.755 1.555-13.636 4.213l-172.077 118.187 6.88-37.28c41.034-217.738 229.728-380.244 456.378-380.244 131.916 0 250.974 55.049 335.455 143.428 4.595 5.959 11.503 9.652 19.273 9.652 13.255 0 24-10.745 24-24 0-7.57-3.505-14.321-8.98-18.72-92.783-97.877-223.674-158.758-368.784-158.758-0.416 0-0.832 0.001-1.247 0.001z" />
<glyph unicode="&#xe906;" glyph-name="student2" horiz-adv-x="1746" d="M872.16 960l-872.16-347.2 874.080-347.36 872 345.28-873.92 349.28zM1349.6 125.44v266.4l-476.48-187.52-476.48 187.52v-266.4s-21.76-167.68 476.48-189.44c498.080 21.76 476.48 189.44 476.48 189.44zM1650.88 370.080c0-17.673-14.327-32-32-32s-32 14.327-32 32c0 17.673 14.327 32 32 32s32-14.327 32-32zM1605.12 571.52h27.36v-219.68h-27.36v219.68zM1618.88 370.080l31.84-59.36 31.84-59.52h-127.36l31.84 59.52 31.84 59.36z" />
<glyph unicode="&#xe907;" glyph-name="tag" horiz-adv-x="1008" d="M350.4-64c-0.062 0-0.134-0.001-0.207-0.001-9.607 0-18.331 3.78-24.766 9.933l-314.387 300.787c-6.855 6.591-11.114 15.839-11.114 26.082 0 9.685 3.808 18.481 10.008 24.972l415.987 434.706c11.138 10.789 26.155 17.631 42.764 18.237l289.236-1.277c19.646-0.31 35.598-15.706 36.795-35.094l13.925-288.106c0.007-0.355 0.011-0.774 0.011-1.194 0-16.366-6.067-31.314-16.074-42.719l-415.937-434.646c-6.526-7.133-15.853-11.61-26.227-11.68zM469.12 713.76c-6.178-0.641-11.676-3.136-16.036-6.911l-416.284-434.849 314.24-299.2 414.72 434.72c3.449 4.398 5.673 9.905 6.075 15.911l-13.915 288.089-288.8 1.28zM682.72 545.12c-1.063-0.008-2.32-0.013-3.579-0.013-26.585 0-52.666 2.158-78.077 6.307-0.924 0.299-4.146 2.006-6.67 4.432-3.546 3.381-5.754 8.15-5.754 13.434 0 10.25 8.31 18.56 18.56 18.56 22.816-3.564 49.131-5.6 75.921-5.6 0.028 0 0.056 0 0.084 0 0.603-0.003 1.323-0.005 2.043-0.005 30.521 0 60.333 3.030 89.154 8.807 104.798 21.118 171.678 81.118 195.838 178.238 7.84 64-19.2 137.28-118.4 153.44h-9.28c-48.96 0-117.6-24.96-166.24-144-2.799-6.811-9.383-11.52-17.065-11.52-0.019 0-0.038 0-0.058 0-2.541 0.009-4.96 0.538-7.155 1.485-6.664 2.818-11.338 9.414-11.338 17.101 0 2.529 0.506 4.939 1.421 7.136 59.155 145.477 151.475 167.077 201.235 167.077 4.32 0 8.48 0 12 0 128-20.32 161.28-118.4 151.2-196.32-27.84-113.44-106.88-184.96-228.96-209.12-28.495-5.938-61.266-9.372-94.827-9.44zM650.88 517.12l-3.2-3.84c-10.58-10.97-25.407-17.782-41.826-17.782-32.077 0-58.080 26.003-58.080 58.080s26.003 58.080 58.080 58.080c9.41 0 18.297-2.238 26.158-6.21l44.468 1.592c-16.361 21.245-41.805 34.799-70.415 34.799-48.955 0-88.64-39.685-88.64-88.64s39.685-88.64 88.64-88.64c36.32 0 67.537 21.844 81.232 53.111zM316.8 290.56c0.009-0.442 0.014-0.964 0.014-1.487 0-42.436-33.647-77.013-75.717-78.51-0.95-0.035-1.905-0.053-2.864-0.053-41.862 0-75.869 33.633-76.472 75.352-0.010 0.499-0.015 1.021-0.015 1.544 0 42.436 33.647 77.013 75.717 78.51 0.95 0.035 1.905 0.053 2.864 0.053 41.862 0 75.869-33.633 76.472-75.352zM237.76 341.28c-28.431-0.712-51.206-23.929-51.206-52.465 0-0.287 0.002-0.573 0.007-0.859 1.234-28.846 24.953-51.798 54.033-51.798 0.129 0 0.258 0 0.386 0.001 28.399 0.616 51.2 23.8 51.2 52.308 0 0.51-0.007 1.019-0.022 1.526-1.894 28.555-25.483 51.086-54.379 51.285zM419.2 119.68l-20.16-21.12-105.28 352 20.16 21.12zM553.6 285.76c0.016-0.581 0.024-1.265 0.024-1.951 0-42.343-33.706-76.814-75.751-78.046-0.927-0.034-1.882-0.051-2.841-0.051-41.774 0-75.709 33.562-76.312 75.192-0.019 0.684-0.029 1.423-0.029 2.164 0 42.313 33.726 76.748 75.763 77.891 0.966 0.037 1.976 0.057 2.991 0.057 41.832 0 75.803-33.655 76.314-75.366zM474.72 336c-28.388-0.431-51.236-23.544-51.236-51.994 0-0.677 0.013-1.351 0.039-2.022 1.565-28.686 25.221-51.449 54.224-51.583 28.418 0.523 51.243 23.671 51.243 52.152 0 0.622-0.011 1.241-0.032 1.858-1.485 28.73-25.189 51.54-54.232 51.591z" />
<glyph unicode="&#xe908;" glyph-name="vtaplus" horiz-adv-x="2301" d="M1379.2 275.2c0-54.4-17.6-92.8-52.8-116.8s-80-36.8-136-36.8c-3.2 0-11.2 0-22.4 1.6-11.2 0-19.2 1.6-22.4 1.6s-8 0-12.8 0v-171.2c0-3.2-1.6-6.4-3.2-9.6-3.2-3.2-4.8-3.2-8-3.2h-65.6c-3.2 0-6.4 1.6-9.6 3.2-3.2 3.2-4.8 6.4-4.8 9.6v449.6c0 6.4 1.6 11.2 4.8 12.8 3.2 3.2 9.6 4.8 16 6.4 35.2 6.4 78.4 8 128 8 56 0 102.4-11.2 136-35.2 35.2-24 52.8-62.4 52.8-115.2v-4.8zM1288 275.2v6.4c0 27.2-8 46.4-24 57.6s-40 17.6-73.6 17.6c-20.8 0-40-1.6-57.6-3.2v-155.2c20.8-1.6 40-1.6 57.6-1.6 24 0 41.6 3.2 56 8 14.4 6.4 24 14.4 32 25.6 6.4 11.2 9.6 27.2 9.6 44.8zM1550.4-44.8c0-3.2-1.6-6.4-3.2-9.6s-4.8-4.8-9.6-4.8h-60.8c-3.2 0-6.4 1.6-9.6 4.8s-3.2 6.4-3.2 9.6v470.4c0 3.2 1.6 6.4 3.2 9.6 3.2 3.2 6.4 4.8 9.6 4.8h60.8c3.2 0 6.4-1.6 9.6-4.8s3.2-6.4 3.2-9.6v-470.4zM1651.2 296c0 3.2 1.6 6.4 3.2 9.6 3.2 3.2 4.8 4.8 9.6 4.8h60.8c3.2 0 6.4-1.6 9.6-3.2 3.2-3.2 3.2-6.4 3.2-9.6v-217.6c0-12.8 1.6-24 3.2-32s6.4-16 11.2-22.4c4.8-6.4 11.2-9.6 20.8-12.8 8-3.2 19.2-3.2 32-3.2 20.8 0 43.2 3.2 64 8v278.4c0 3.2 1.6 6.4 3.2 9.6 3.2 3.2 4.8 4.8 9.6 4.8h60.8c3.2 0 6.4-1.6 9.6-4.8s4.8-6.4 4.8-9.6v-326.4c0-6.4-4.8-11.2-12.8-12.8-24-6.4-46.4-11.2-72-14.4-24-3.2-46.4-4.8-68.8-4.8-25.6 0-48 3.2-67.2 8-17.6 4.8-33.6 14.4-46.4 25.6s-22.4 27.2-27.2 44.8c-6.4 17.6-9.6 40-9.6 65.6v214.4zM2164.8 6.4c19.2 0 33.6 3.2 40 8s9.6 12.8 9.6 20.8c0 8-1.6 14.4-6.4 19.2s-11.2 11.2-22.4 17.6l-89.6 54.4c-17.6 11.2-30.4 24-40 38.4-9.6 16-14.4 32-14.4 51.2 0 65.6 41.6 97.6 124.8 97.6 43.2 0 81.6-6.4 113.6-20.8 4.8-1.6 8-4.8 11.2-6.4 1.6-3.2 3.2-6.4 3.2-9.6v-40c0-9.6-4.8-12.8-14.4-11.2-38.4 12.8-73.6 17.6-105.6 17.6-16 0-28.8-1.6-36.8-4.8s-11.2-9.6-11.2-19.2c0-4.8 1.6-9.6 3.2-11.2 1.6-3.2 4.8-6.4 8-8 3.2-3.2 8-6.4 14.4-9.6l84.8-52.8c25.6-14.4 41.6-30.4 49.6-44.8 8-16 12.8-32 12.8-49.6 0-20.8-4.8-38.4-14.4-56-9.6-16-24-28.8-43.2-38.4s-43.2-12.8-70.4-12.8c-43.2 0-81.6 6.4-115.2 20.8-4.8 3.2-9.6 4.8-11.2 8s-3.2 4.8-3.2 9.6v40c0 9.6 4.8 12.8 14.4 11.2 41.6-12.8 76.8-19.2 108.8-19.2zM561.6-59.2c0 0-43.2-4.8-80 80s-59.2 204.8-180.8 412.8c-121.6 208-171.2 232-212.8 289.6-41.6 56-116.8 153.6-76.8 204.8 40 52.8 211.2 25.6 331.2-32 121.6-57.6 321.6-204.8 340.8-520 19.2-312-78.4-444.8-121.6-435.2zM812.8 404.8c0 0-36.8 9.6-41.6 65.6-4.8 57.6-11.2 132.8-43.2 216-33.6 83.2-62.4 107.2-81.6 137.6-22.4 32-38.4 49.6-22.4 88 16 36.8 100.8 43.2 126.4 43.2s185.6 6.4 225.6 4.8c40-1.6 126.4 1.6 147.2-62.4 16-46.4-75.2-185.6-75.2-185.6l-131.2-227.2c-1.6 1.6-51.2-91.2-104-80z" />
</font>
</defs>
</svg>
